/videos/39c15f0f-54a9-63a1-5cb4-d53d74b6168f/hls1/main/660.ts

{"Protocol":0,"Id":"39c15f0f54a963a15cb4d53d74b6168f","Path":"/media/Seven [1080p] MULTi 1995 BluRay x264-Pop (Se7en) .mkv","EncoderPath":null,"EncoderProtocol":null,"Type":0,"Container":"mkv,webm","Size":2736675072,"Name":"Seven [1080p] MULTi 1995 BluRay x264-Pop (Se7en) ","IsRemote":false,"ETag":"566b4b688c67a0d71248842a6e0f45ad","RunTimeTicks":76112478208,"ReadAtNativeFramerate":false,"IgnoreDts":false,"IgnoreIndex":false,"GenPtsInput":false,"SupportsTranscoding":true,"SupportsDirectStream":true,"SupportsDirectPlay":true,"IsInfiniteStream":false,"RequiresOpening":false,"OpenToken":null,"RequiresClosing":false,"LiveStreamId":null,"BufferMs":null,"RequiresLooping":false,"SupportsProbing":true,"VideoType":0,"IsoType":null,"Video3DFormat":null,"MediaStreams":[{"Codec":"subrip","CodecTag":null,"Language":"fre","ColorRange":null,"ColorSpace":null,"ColorTransfer":null,"ColorPrimaries":null,"DvVersionMajor":null,"DvVersionMinor":null,"DvProfile":null,"DvLevel":null,"RpuPresentFlag":null,"ElPresentFlag":null,"BlPresentFlag":null,"DvBlSignalCompatibilityId":null,"Comment":null,"TimeBase":"1/1000","CodecTimeBase":null,"Title":"complet","VideoRange":null,"VideoRangeType":null,"VideoDoViTitle":null,"LocalizedUndefined":"Non d\u00E9fini","LocalizedDefault":"Par d\u00E9faut","LocalizedForced":"Forc\u00E9","LocalizedExternal":"External","DisplayTitle":"complet - Fre - SUBRIP","NalLengthSize":null,"IsInterlaced":false,"IsAVC":null,"ChannelLayout":null,"BitRate":null,"BitDepth":null,"RefFrames":null,"PacketLength":null,"Channels":null,"SampleRate":null,"IsDefault":false,"IsForced":false,"Height":null,"Width":null,"AverageFrameRate":null,"RealFrameRate":null,"Profile":null,"Type":2,"AspectRatio":null,"Index":0,"Score":null,"IsExternal":false,"DeliveryMethod":null,"DeliveryUrl":null,"IsExternalUrl":null,"IsTextSubtitleStream":true,"SupportsExternalStream":true,"Path":null,"PixelFormat":null,"Level":0,"IsAnamorphic":null},{"Codec":"ac3","CodecTag":null,"Language":"fre","ColorRange":null,"ColorSpace":null,"ColorTransfer":null,"ColorPrimaries":null,"DvVersionMajor":null,"DvVersionMinor":null,"DvProfile":null,"DvLevel":null,"RpuPresentFlag":null,"ElPresentFlag":null,"BlPresentFlag":null,"DvBlSignalCompatibilityId":null,"Comment":null,"TimeBase":"1/1000","CodecTimeBase":null,"Title":"AC3 VFF 5.1","VideoRange":null,"VideoRangeType":null,"VideoDoViTitle":null,"LocalizedUndefined":null,"LocalizedDefault":null,"LocalizedForced":null,"LocalizedExternal":null,"DisplayTitle":"AC3 VFF 5.1 - Fre - Dolby Digital - Default","NalLengthSize":null,"IsInterlaced":false,"IsAVC":null,"ChannelLayout":"5.1","BitRate":384000,"BitDepth":null,"RefFrames":null,"PacketLength":null,"Channels":6,"SampleRate":48000,"IsDefault":true,"IsForced":false,"Height":null,"Width":null,"AverageFrameRate":null,"RealFrameRate":null,"Profile":null,"Type":0,"AspectRatio":null,"Index":1,"Score":null,"IsExternal":false,"DeliveryMethod":null,"DeliveryUrl":null,"IsExternalUrl":null,"IsTextSubtitleStream":false,"SupportsExternalStream":false,"Path":null,"PixelFormat":null,"Level":0,"IsAnamorphic":null},{"Codec":"ac3","CodecTag":null,"Language":null,"ColorRange":null,"ColorSpace":null,"ColorTransfer":null,"ColorPrimaries":null,"DvVersionMajor":null,"DvVersionMinor":null,"DvProfile":null,"DvLevel":null,"RpuPresentFlag":null,"ElPresentFlag":null,"BlPresentFlag":null,"DvBlSignalCompatibilityId":null,"Comment":null,"TimeBase":"1/1000","CodecTimeBase":null,"Title":"VFQ AC3 2.0","VideoRange":null,"VideoRangeType":null,"VideoDoViTitle":null,"LocalizedUndefined":null,"LocalizedDefault":null,"LocalizedForced":null,"LocalizedExternal":null,"DisplayTitle":"VFQ AC3 2.0 - Dolby Digital - Stereo","NalLengthSize":null,"IsInterlaced":false,"IsAVC":null,"ChannelLayout":"stereo","BitRate":192000,"BitDepth":null,"RefFrames":null,"PacketLength":null,"Channels":2,"SampleRate":48000,"IsDefault":false,"IsForced":false,"Height":null,"Width":null,"AverageFrameRate":null,"RealFrameRate":null,"Profile":null,"Type":0,"AspectRatio":null,"Index":2,"Score":null,"IsExternal":false,"DeliveryMethod":null,"DeliveryUrl":null,"IsExternalUrl":null,"IsTextSubtitleStream":false,"SupportsExternalStream":false,"Path":null,"PixelFormat":null,"Level":0,"IsAnamorphic":null},{"Codec":"h264","CodecTag":null,"Language":"fre","ColorRange":null,"ColorSpace":"bt709","ColorTransfer":"bt709","ColorPrimaries":"bt709","DvVersionMajor":null,"DvVersionMinor":null,"DvProfile":null,"DvLevel":null,"RpuPresentFlag":null,"ElPresentFlag":null,"BlPresentFlag":null,"DvBlSignalCompatibilityId":null,"Comment":null,"TimeBase":"1/1000","CodecTimeBase":null,"Title":null,"VideoRange":"SDR","VideoRangeType":"SDR","VideoDoViTitle":null,"LocalizedUndefined":null,"LocalizedDefault":null,"LocalizedForced":null,"LocalizedExternal":null,"DisplayTitle":"1080p H264 SDR","NalLengthSize":"4","IsInterlaced":false,"IsAVC":true,"ChannelLayout":null,"BitRate":2876453,"BitDepth":8,"RefFrames":1,"PacketLength":null,"Channels":null,"SampleRate":null,"IsDefault":true,"IsForced":false,"Height":800,"Width":1920,"AverageFrameRate":23.976025,"RealFrameRate":23.976025,"Profile":"High","Type":1,"AspectRatio":"2.40:1","Index":3,"Score":null,"IsExternal":false,"DeliveryMethod":null,"DeliveryUrl":null,"IsExternalUrl":null,"IsTextSubtitleStream":false,"SupportsExternalStream":false,"Path":null,"PixelFormat":"yuv420p","Level":41,"IsAnamorphic":null},{"Codec":"ac3","CodecTag":null,"Language":"eng","ColorRange":null,"ColorSpace":null,"ColorTransfer":null,"ColorPrimaries":null,"DvVersionMajor":null,"DvVersionMinor":null,"DvProfile":null,"DvLevel":null,"RpuPresentFlag":null,"ElPresentFlag":null,"BlPresentFlag":null,"DvBlSignalCompatibilityId":null,"Comment":null,"TimeBase":"1/1000","CodecTimeBase":null,"Title":"AC3 5.1","VideoRange":null,"VideoRangeType":null,"VideoDoViTitle":null,"LocalizedUndefined":null,"LocalizedDefault":null,"LocalizedForced":null,"LocalizedExternal":null,"DisplayTitle":"AC3 5.1 - Eng - Dolby Digital","NalLengthSize":null,"IsInterlaced":false,"IsAVC":null,"ChannelLayout":"5.1","BitRate":256000,"BitDepth":null,"RefFrames":null,"PacketLength":null,"Channels":6,"SampleRate":48000,"IsDefault":false,"IsForced":false,"Height":null,"Width":null,"AverageFrameRate":null,"RealFrameRate":null,"Profile":null,"Type":0,"AspectRatio":null,"Index":4,"Score":null,"IsExternal":false,"DeliveryMethod":null,"DeliveryUrl":null,"IsExternalUrl":null,"IsTextSubtitleStream":false,"SupportsExternalStream":false,"Path":null,"PixelFormat":null,"Level":0,"IsAnamorphic":null},{"Codec":"subrip","CodecTag":null,"Language":"eng","ColorRange":null,"ColorSpace":null,"ColorTransfer":null,"ColorPrimaries":null,"DvVersionMajor":null,"DvVersionMinor":null,"DvProfile":null,"DvLevel":null,"RpuPresentFlag":null,"ElPresentFlag":null,"BlPresentFlag":null,"DvBlSignalCompatibilityId":null,"Comment":null,"TimeBase":"1/1000","CodecTimeBase":null,"Title":"complet","VideoRange":null,"VideoRangeType":null,"VideoDoViTitle":null,"LocalizedUndefined":"Non d\u00E9fini","LocalizedDefault":"Par d\u00E9faut","LocalizedForced":"Forc\u00E9","LocalizedExternal":"External","DisplayTitle":"complet - Eng - SUBRIP","NalLengthSize":null,"IsInterlaced":false,"IsAVC":null,"ChannelLayout":null,"BitRate":null,"BitDepth":null,"RefFrames":null,"PacketLength":null,"Channels":null,"SampleRate":null,"IsDefault":false,"IsForced":false,"Height":null,"Width":null,"AverageFrameRate":null,"RealFrameRate":null,"Profile":null,"Type":2,"AspectRatio":null,"Index":5,"Score":null,"IsExternal":false,"DeliveryMethod":null,"DeliveryUrl":null,"IsExternalUrl":null,"IsTextSubtitleStream":true,"SupportsExternalStream":true,"Path":null,"PixelFormat":null,"Level":0,"IsAnamorphic":null}],"MediaAttachments":[],"Formats":[],"Bitrate":3708453,"Timestamp":null,"RequiredHttpHeaders":{},"TranscodingUrl":null,"TranscodingSubProtocol":null,"TranscodingContainer":null,"AnalyzeDurationMs":null,"DefaultAudioStreamIndex":null,"DefaultSubtitleStreamIndex":null}

/usr/lib/jellyfin-ffmpeg/ffmpeg -analyzeduration 200M -ss 01:06:07.713 -fflags +genpts -f matroska,webm  -i file:"/media/Seven [1080p] MULTi 1995 BluRay x264-Pop (Se7en) .mkv" -map_metadata -1 -map_chapters -1 -threads 0 -map 0:3 -map 0:4 -map -0:s -codec:v:0 copy -bsf:v h264_mp4toannexb -start_at_zero -codec:a:0 libfdk_aac -ac 2 -ab 384000 -af "volume=2" -copyts -avoid_negative_ts disabled -max_muxing_queue_size 2048 -f hls -max_delay 5000000 -hls_time 6 -hls_segment_type mpegts -start_number 660 -hls_segment_filename "/config/transcodes/2bf330020f1030dcff08171a924c4b3d%d.ts" -hls_playlist_type vod -hls_list_size 0 -y "/config/transcodes/2bf330020f1030dcff08171a924c4b3d.m3u8"


ffmpeg version 5.1.3-Jellyfin Copyright (c) 2000-2022 the FFmpeg developers
  built with gcc 10 (Debian 10.2.1-6)
  configuration: --prefix=/usr/lib/jellyfin-ffmpeg --target-os=linux --extra-libs=-lfftw3f --extra-version=Jellyfin --disable-doc --disable-ffplay --disable-ptx-compression --disable-static --disable-libxcb --disable-sdl2 --disable-xlib --enable-lto --enable-gpl --enable-version3 --enable-shared --enable-gmp --enable-gnutls --enable-chromaprint --enable-libdrm --enable-libass --enable-libfreetype --enable-libfribidi --enable-libfontconfig --enable-libbluray --enable-libmp3lame --enable-libopus --enable-libtheora --enable-libvorbis --enable-libopenmpt --enable-libdav1d --enable-libwebp --enable-libvpx --enable-libx264 --enable-libx265 --enable-libzvbi --enable-libzimg --enable-libfdk-aac --arch=amd64 --enable-libsvtav1 --enable-libshaderc --enable-libplacebo --enable-vulkan --enable-opencl --enable-vaapi --enable-amf --enable-libmfx --enable-ffnvcodec --enable-cuda --enable-cuda-llvm --enable-cuvid --enable-nvdec --enable-nvenc
  libavutil      57. 28.100 / 57. 28.100
  libavcodec     59. 37.100 / 59. 37.100
  libavformat    59. 27.100 / 59. 27.100
  libavdevice    59.  7.100 / 59.  7.100
  libavfilter     8. 44.100 /  8. 44.100
  libswscale      6.  7.100 /  6.  7.100
  libswresample   4.  7.100 /  4.  7.100
  libpostproc    56.  6.100 / 56.  6.100
Input #0, matroska,webm, from 'file:/media/Seven [1080p] MULTi 1995 BluRay x264-Pop (Se7en) .mkv':
  Metadata:
    encoder         : libebml v1.3.0 + libmatroska v1.4.0
    creation_time   : 2014-01-28T16:26:08.000000Z
  Duration: 02:06:51.25, start: 0.000000, bitrate: 2876 kb/s
  Stream #0:0(fre): Subtitle: subrip
    Metadata:
      title           : complet
  Stream #0:1(fre): Audio: ac3, 48000 Hz, 5.1(side), fltp, 384 kb/s (default)
    Metadata:
      title           : AC3 VFF 5.1
  Stream #0:2: Audio: ac3, 48000 Hz, stereo, fltp, 192 kb/s
    Metadata:
      title           : VFQ AC3 2.0
  Stream #0:3(fre): Video: h264 (High), yuv420p(tv, bt709, progressive), 1920x800 [SAR 1:1 DAR 12:5], 23.98 fps, 23.98 tbr, 1k tbn (default)
  Stream #0:4(eng): Audio: ac3, 48000 Hz, 5.1(side), fltp, 256 kb/s
    Metadata:
      title           : AC3 5.1
  Stream #0:5(eng): Subtitle: subrip
    Metadata:
      title           : complet
Stream mapping:
  Stream #0:3 -> #0:0 (copy)
  Stream #0:4 -> #0:1 (ac3 (native) -> aac (libfdk_aac))
Press [q] to stop, [?] for help
Output #0, hls, to '/config/transcodes/2bf330020f1030dcff08171a924c4b3d.m3u8':
  Metadata:
    encoder         : Lavf59.27.100
  Stream #0:0: Video: h264 (High), yuv420p(tv, bt709, progressive), 1920x800 [SAR 1:1 DAR 12:5], q=2-31, 23.98 fps, 23.98 tbr, 90k tbn (default)
  Stream #0:1: Audio: aac, 48000 Hz, stereo, s16, 384 kb/s
    Metadata:
      encoder         : Lavc59.37.100 libfdk_aac
frame=    1 fps=0.0 q=-1.0 size=N/A time=-01:06:04.50 bitrate=N/A speed=N/A    
[hls @ 0x5619bc194a00] Opening '/config/transcodes/2bf330020f1030dcff08171a924c4b3d660.ts' for writing
[hls @ 0x5619bc194a00] Opening '/config/transcodes/2bf330020f1030dcff08171a924c4b3d661.ts' for writing
frame=  675 fps=0.0 q=-1.0 size=N/A time=00:00:28.36 bitrate=N/A speed=56.6x    
[hls @ 0x5619bc194a00] Opening '/config/transcodes/2bf330020f1030dcff08171a924c4b3d662.ts' for writing
[hls @ 0x5619bc194a00] Opening '/config/transcodes/2bf330020f1030dcff08171a924c4b3d663.ts' for writing
frame= 1177 fps=1175 q=-1.0 size=N/A time=00:00:49.16 bitrate=N/A speed=49.1x    
[hls @ 0x5619bc194a00] Opening '/config/transcodes/2bf330020f1030dcff08171a924c4b3d664.ts' for writing
[hls @ 0x5619bc194a00] Opening '/config/transcodes/2bf330020f1030dcff08171a924c4b3d665.ts' for writing
[hls @ 0x5619bc194a00] Opening '/config/transcodes/2bf330020f1030dcff08171a924c4b3d666.ts' for writing
[hls @ 0x5619bc194a00] Opening '/config/transcodes/2bf330020f1030dcff08171a924c4b3d667.ts' for writing
frame= 1783 fps=1187 q=-1.0 size=N/A time=00:01:14.48 bitrate=N/A speed=49.6x    
[hls @ 0x5619bc194a00] Opening '/config/transcodes/2bf330020f1030dcff08171a924c4b3d668.ts' for writing
[hls @ 0x5619bc194a00] Opening '/config/transcodes/2bf330020f1030dcff08171a924c4b3d669.ts' for writing
[hls @ 0x5619bc194a00] Opening '/config/transcodes/2bf330020f1030dcff08171a924c4b3d670.ts' for writing
frame= 2477 fps=1237 q=-1.0 size=N/A time=00:01:43.49 bitrate=N/A speed=51.7x    
[hls @ 0x5619bc194a00] Opening '/config/transcodes/2bf330020f1030dcff08171a924c4b3d671.ts' for writing
[hls @ 0x5619bc194a00] Opening '/config/transcodes/2bf330020f1030dcff08171a924c4b3d672.ts' for writing
[hls @ 0x5619bc194a00] Opening '/config/transcodes/2bf330020f1030dcff08171a924c4b3d673.ts' for writing
frame= 3229 fps=1290 q=-1.0 size=N/A time=00:02:14.98 bitrate=N/A speed=53.9x    
[hls @ 0x5619bc194a00] Opening '/config/transcodes/2bf330020f1030dcff08171a924c4b3d674.ts' for writing
[hls @ 0x5619bc194a00] Opening '/config/transcodes/2bf330020f1030dcff08171a924c4b3d675.ts' for writing
[hls @ 0x5619bc194a00] Opening '/config/transcodes/2bf330020f1030dcff08171a924c4b3d676.ts' for writing
[hls @ 0x5619bc194a00] Opening '/config/transcodes/2bf330020f1030dcff08171a924c4b3d677.ts' for writing
[hls @ 0x5619bc194a00] Opening '/config/transcodes/2bf330020f1030dcff08171a924c4b3d678.ts' for writing
[hls @ 0x5619bc194a00] Opening '/config/transcodes/2bf330020f1030dcff08171a924c4b3d679.ts' for writing
frame= 3996 fps=1331 q=-1.0 size=N/A time=00:02:46.85 bitrate=N/A speed=55.6x    
[hls @ 0x5619bc194a00] Opening '/config/transcodes/2bf330020f1030dcff08171a924c4b3d680.ts' for writing
[hls @ 0x5619bc194a00] Opening '/config/transcodes/2bf330020f1030dcff08171a924c4b3d681.ts' for writing
[hls @ 0x5619bc194a00] Opening '/config/transcodes/2bf330020f1030dcff08171a924c4b3d682.ts' for writing
[hls @ 0x5619bc194a00] Opening '/config/transcodes/2bf330020f1030dcff08171a924c4b3d683.ts' for writing
[hls @ 0x5619bc194a00] Opening '/config/transcodes/2bf330020f1030dcff08171a924c4b3d684.ts' for writing
[hls @ 0x5619bc194a00] Opening '/config/transcodes/2bf330020f1030dcff08171a924c4b3d685.ts' for writing
frame= 4790 fps=1367 q=-1.0 size=N/A time=00:03:20.01 bitrate=N/A speed=57.1x    
[hls @ 0x5619bc194a00] Opening '/config/transcodes/2bf330020f1030dcff08171a924c4b3d686.ts' for writing
[hls @ 0x5619bc194a00] Opening '/config/transcodes/2bf330020f1030dcff08171a924c4b3d687.ts' for writing
[hls @ 0x5619bc194a00] Opening '/config/transcodes/2bf330020f1030dcff08171a924c4b3d688.ts' for writing
[hls @ 0x5619bc194a00] Opening '/config/transcodes/2bf330020f1030dcff08171a924c4b3d689.ts' for writing
[hls @ 0x5619bc194a00] Opening '/config/transcodes/2bf330020f1030dcff08171a924c4b3d690.ts' for writing
[hls @ 0x5619bc194a00] Opening '/config/transcodes/2bf330020f1030dcff08171a924c4b3d691.ts' for writing
[hls @ 0x5619bc194a00] Opening '/config/transcodes/2bf330020f1030dcff08171a924c4b3d692.ts' for writing
frame= 5461 fps=1364 q=-1.0 size=N/A time=00:03:47.91 bitrate=N/A speed=56.9x    
[hls @ 0x5619bc194a00] Opening '/config/transcodes/2bf330020f1030dcff08171a924c4b3d693.ts' for writing
[hls @ 0x5619bc194a00] Opening '/config/transcodes/2bf330020f1030dcff08171a924c4b3d694.ts' for writing
[hls @ 0x5619bc194a00] Opening '/config/transcodes/2bf330020f1030dcff08171a924c4b3d695.ts' for writing
[hls @ 0x5619bc194a00] Opening '/config/transcodes/2bf330020f1030dcff08171a924c4b3d696.ts' for writing
frame= 6183 fps=1373 q=-1.0 size=N/A time=00:04:18.18 bitrate=N/A speed=57.3x    
[hls @ 0x5619bc194a00] Opening '/config/transcodes/2bf330020f1030dcff08171a924c4b3d697.ts' for writing
[hls @ 0x5619bc194a00] Opening '/config/transcodes/2bf330020f1030dcff08171a924c4b3d698.ts' for writing
[hls @ 0x5619bc194a00] Opening '/config/transcodes/2bf330020f1030dcff08171a924c4b3d699.ts' for writing
[hls @ 0x5619bc194a00] Opening '/config/transcodes/2bf330020f1030dcff08171a924c4b3d700.ts' for writing
[hls @ 0x5619bc194a00] Opening '/config/transcodes/2bf330020f1030dcff08171a924c4b3d701.ts' for writing
[hls @ 0x5619bc194a00] Opening '/config/transcodes/2bf330020f1030dcff08171a924c4b3d702.ts' for writing
frame= 6951 fps=1389 q=-1.0 size=N/A time=00:04:49.99 bitrate=N/A speed=  58x    
[hls @ 0x5619bc194a00] Opening '/config/transcodes/2bf330020f1030dcff08171a924c4b3d703.ts' for writing
[hls @ 0x5619bc194a00] Opening '/config/transcodes/2bf330020f1030dcff08171a924c4b3d704.ts' for writing
[hls @ 0x5619bc194a00] Opening '/config/transcodes/2bf330020f1030dcff08171a924c4b3d705.ts' for writing
[hls @ 0x5619bc194a00] Opening '/config/transcodes/2bf330020f1030dcff08171a924c4b3d706.ts' for writing
[hls @ 0x5619bc194a00] Opening '/config/transcodes/2bf330020f1030dcff08171a924c4b3d707.ts' for writing
[hls @ 0x5619bc194a00] Opening '/config/transcodes/2bf330020f1030dcff08171a924c4b3d708.ts' for writing
[hls @ 0x5619bc194a00] Opening '/config/transcodes/2bf330020f1030dcff08171a924c4b3d709.ts' for writing
[hls @ 0x5619bc194a00] Opening '/config/transcodes/2bf330020f1030dcff08171a924c4b3d710.ts' for writing
[hls @ 0x5619bc194a00] Opening '/config/transcodes/2bf330020f1030dcff08171a924c4b3d711.ts' for writing
frame= 7745 fps=1407 q=-1.0 size=N/A time=00:05:23.25 bitrate=N/A speed=58.7x    
[hls @ 0x5619bc194a00] Opening '/config/transcodes/2bf330020f1030dcff08171a924c4b3d712.ts' for writing
[hls @ 0x5619bc194a00] Opening '/config/transcodes/2bf330020f1030dcff08171a924c4b3d713.ts' for writing
[hls @ 0x5619bc194a00] Opening '/config/transcodes/2bf330020f1030dcff08171a924c4b3d714.ts' for writing
[hls @ 0x5619bc194a00] Opening '/config/transcodes/2bf330020f1030dcff08171a924c4b3d715.ts' for writing
[hls @ 0x5619bc194a00] Opening '/config/transcodes/2bf330020f1030dcff08171a924c4b3d716.ts' for writing
[hls @ 0x5619bc194a00] Opening '/config/transcodes/2bf330020f1030dcff08171a924c4b3d717.ts' for writing
frame= 8549 fps=1424 q=-1.0 size=N/A time=00:05:56.74 bitrate=N/A speed=59.4x    
[hls @ 0x5619bc194a00] Opening '/config/transcodes/2bf330020f1030dcff08171a924c4b3d718.ts' for writing
[hls @ 0x5619bc194a00] Opening '/config/transcodes/2bf330020f1030dcff08171a924c4b3d719.ts' for writing
[hls @ 0x5619bc194a00] Opening '/config/transcodes/2bf330020f1030dcff08171a924c4b3d720.ts' for writing
[hls @ 0x5619bc194a00] Opening '/config/transcodes/2bf330020f1030dcff08171a924c4b3d721.ts' for writing
[hls @ 0x5619bc194a00] Opening '/config/transcodes/2bf330020f1030dcff08171a924c4b3d722.ts' for writing
frame= 9345 fps=1437 q=-1.0 size=N/A time=00:06:29.81 bitrate=N/A speed=59.9x    
[hls @ 0x5619bc194a00] Opening '/config/transcodes/2bf330020f1030dcff08171a924c4b3d723.ts' for writing
[hls @ 0x5619bc194a00] Opening '/config/transcodes/2bf330020f1030dcff08171a924c4b3d724.ts' for writing
[hls @ 0x5619bc194a00] Opening '/config/transcodes/2bf330020f1030dcff08171a924c4b3d725.ts' for writing
[hls @ 0x5619bc194a00] Opening '/config/transcodes/2bf330020f1030dcff08171a924c4b3d726.ts' for writing
frame=10006 fps=1428 q=-1.0 size=N/A time=00:06:57.35 bitrate=N/A speed=59.6x    
[hls @ 0x5619bc194a00] Opening '/config/transcodes/2bf330020f1030dcff08171a924c4b3d727.ts' for writing
[hls @ 0x5619bc194a00] Opening '/config/transcodes/2bf330020f1030dcff08171a924c4b3d728.ts' for writing
[hls @ 0x5619bc194a00] Opening '/config/transcodes/2bf330020f1030dcff08171a924c4b3d729.ts' for writing
[hls @ 0x5619bc194a00] Opening '/config/transcodes/2bf330020f1030dcff08171a924c4b3d730.ts' for writing
[hls @ 0x5619bc194a00] Opening '/config/transcodes/2bf330020f1030dcff08171a924c4b3d731.ts' for writing
[hls @ 0x5619bc194a00] Opening '/config/transcodes/2bf330020f1030dcff08171a924c4b3d732.ts' for writing
[hls @ 0x5619bc194a00] Opening '/config/transcodes/2bf330020f1030dcff08171a924c4b3d733.ts' for writing
frame=10728 fps=1429 q=-1.0 size=N/A time=00:07:27.73 bitrate=N/A speed=59.6x    
[hls @ 0x5619bc194a00] Opening '/config/transcodes/2bf330020f1030dcff08171a924c4b3d734.ts' for writing
[hls @ 0x5619bc194a00] Opening '/config/transcodes/2bf330020f1030dcff08171a924c4b3d735.ts' for writing
[hls @ 0x5619bc194a00] Opening '/config/transcodes/2bf330020f1030dcff08171a924c4b3d736.ts' for writing
frame=11526 fps=1440 q=-1.0 size=N/A time=00:08:01.01 bitrate=N/A speed=60.1x    
[hls @ 0x5619bc194a00] Opening '/config/transcodes/2bf330020f1030dcff08171a924c4b3d737.ts' for writing
[hls @ 0x5619bc194a00] Opening '/config/transcodes/2bf330020f1030dcff08171a924c4b3d738.ts' for writing
[hls @ 0x5619bc194a00] Opening '/config/transcodes/2bf330020f1030dcff08171a924c4b3d739.ts' for writing
[hls @ 0x5619bc194a00] Opening '/config/transcodes/2bf330020f1030dcff08171a924c4b3d740.ts' for writing
frame=12308 fps=1447 q=-1.0 size=N/A time=00:08:33.65 bitrate=N/A speed=60.4x    
[hls @ 0x5619bc194a00] Opening '/config/transcodes/2bf330020f1030dcff08171a924c4b3d741.ts' for writing
[hls @ 0x5619bc194a00] Opening '/config/transcodes/2bf330020f1030dcff08171a924c4b3d742.ts' for writing
[hls @ 0x5619bc194a00] Opening '/config/transcodes/2bf330020f1030dcff08171a924c4b3d743.ts' for writing
[hls @ 0x5619bc194a00] Opening '/config/transcodes/2bf330020f1030dcff08171a924c4b3d744.ts' for writing
frame=13129 fps=1458 q=-1.0 size=N/A time=00:09:07.85 bitrate=N/A speed=60.8x    
[hls @ 0x5619bc194a00] Opening '/config/transcodes/2bf330020f1030dcff08171a924c4b3d745.ts' for writing
[hls @ 0x5619bc194a00] Opening '/config/transcodes/2bf330020f1030dcff08171a924c4b3d746.ts' for writing
[hls @ 0x5619bc194a00] Opening '/config/transcodes/2bf330020f1030dcff08171a924c4b3d747.ts' for writing
frame=13971 fps=1470 q=-1.0 size=N/A time=00:09:42.85 bitrate=N/A speed=61.3x    
[hls @ 0x5619bc194a00] Opening '/config/transcodes/2bf330020f1030dcff08171a924c4b3d748.ts' for writing
[hls @ 0x5619bc194a00] Opening '/config/transcodes/2bf330020f1030dcff08171a924c4b3d749.ts' for writing
[hls @ 0x5619bc194a00] Opening '/config/transcodes/2bf330020f1030dcff08171a924c4b3d750.ts' for writing
[hls @ 0x5619bc194a00] Opening '/config/transcodes/2bf330020f1030dcff08171a924c4b3d751.ts' for writing
frame=14743 fps=1473 q=-1.0 size=N/A time=00:10:15.09 bitrate=N/A speed=61.5x    
[hls @ 0x5619bc194a00] Opening '/config/transcodes/2bf330020f1030dcff08171a924c4b3d752.ts' for writing
[hls @ 0x5619bc194a00] Opening '/config/transcodes/2bf330020f1030dcff08171a924c4b3d753.ts' for writing
[hls @ 0x5619bc194a00] Opening '/config/transcodes/2bf330020f1030dcff08171a924c4b3d754.ts' for writing
[hls @ 0x5619bc194a00] Opening '/config/transcodes/2bf330020f1030dcff08171a924c4b3d755.ts' for writing
frame=15514 fps=1476 q=-1.0 size=N/A time=00:10:47.28 bitrate=N/A speed=61.6x    
[hls @ 0x5619bc194a00] Opening '/config/transcodes/2bf330020f1030dcff08171a924c4b3d756.ts' for writing
[hls @ 0x5619bc194a00] Opening '/config/transcodes/2bf330020f1030dcff08171a924c4b3d757.ts' for writing
[hls @ 0x5619bc194a00] Opening '/config/transcodes/2bf330020f1030dcff08171a924c4b3d758.ts' for writing
[hls @ 0x5619bc194a00] Opening '/config/transcodes/2bf330020f1030dcff08171a924c4b3d759.ts' for writing
[hls @ 0x5619bc194a00] Opening '/config/transcodes/2bf330020f1030dcff08171a924c4b3d760.ts' for writing
[hls @ 0x5619bc194a00] Opening '/config/transcodes/2bf330020f1030dcff08171a924c4b3d761.ts' for writing
frame=16257 fps=1477 q=-1.0 size=N/A time=00:11:18.26 bitrate=N/A speed=61.6x    
[hls @ 0x5619bc194a00] Opening '/config/transcodes/2bf330020f1030dcff08171a924c4b3d762.ts' for writing
[hls @ 0x5619bc194a00] Opening '/config/transcodes/2bf330020f1030dcff08171a924c4b3d763.ts' for writing
[hls @ 0x5619bc194a00] Opening '/config/transcodes/2bf330020f1030dcff08171a924c4b3d764.ts' for writing
[hls @ 0x5619bc194a00] Opening '/config/transcodes/2bf330020f1030dcff08171a924c4b3d765.ts' for writing
[hls @ 0x5619bc194a00] Opening '/config/transcodes/2bf330020f1030dcff08171a924c4b3d766.ts' for writing
[hls @ 0x5619bc194a00] Opening '/config/transcodes/2bf330020f1030dcff08171a924c4b3d767.ts' for writing
[hls @ 0x5619bc194a00] Opening '/config/transcodes/2bf330020f1030dcff08171a924c4b3d768.ts' for writing
[hls @ 0x5619bc194a00] Opening '/config/transcodes/2bf330020f1030dcff08171a924c4b3d769.ts' for writing
[hls @ 0x5619bc194a00] Opening '/config/transcodes/2bf330020f1030dcff08171a924c4b3d770.ts' for writing
frame=17000 fps=1477 q=-1.0 size=N/A time=00:11:49.17 bitrate=N/A speed=61.6x    
[hls @ 0x5619bc194a00] Opening '/config/transcodes/2bf330020f1030dcff08171a924c4b3d771.ts' for writing
[hls @ 0x5619bc194a00] Opening '/config/transcodes/2bf330020f1030dcff08171a924c4b3d772.ts' for writing
[hls @ 0x5619bc194a00] Opening '/config/transcodes/2bf330020f1030dcff08171a924c4b3d773.ts' for writing
frame=17743 fps=1478 q=-1.0 size=N/A time=00:12:20.21 bitrate=N/A speed=61.6x    
[hls @ 0x5619bc194a00] Opening '/config/transcodes/2bf330020f1030dcff08171a924c4b3d774.ts' for writing
[hls @ 0x5619bc194a00] Opening '/config/transcodes/2bf330020f1030dcff08171a924c4b3d775.ts' for writing
[hls @ 0x5619bc194a00] Opening '/config/transcodes/2bf330020f1030dcff08171a924c4b3d776.ts' for writing
[hls @ 0x5619bc194a00] Opening '/config/transcodes/2bf330020f1030dcff08171a924c4b3d777.ts' for writing
[hls @ 0x5619bc194a00] Opening '/config/transcodes/2bf330020f1030dcff08171a924c4b3d778.ts' for writing
frame=18469 fps=1476 q=-1.0 size=N/A time=00:12:50.57 bitrate=N/A speed=61.6x    
[hls @ 0x5619bc194a00] Opening '/config/transcodes/2bf330020f1030dcff08171a924c4b3d779.ts' for writing
[hls @ 0x5619bc194a00] Opening '/config/transcodes/2bf330020f1030dcff08171a924c4b3d780.ts' for writing
[hls @ 0x5619bc194a00] Opening '/config/transcodes/2bf330020f1030dcff08171a924c4b3d781.ts' for writing
[hls @ 0x5619bc194a00] Opening '/config/transcodes/2bf330020f1030dcff08171a924c4b3d782.ts' for writing
[hls @ 0x5619bc194a00] Opening '/config/transcodes/2bf330020f1030dcff08171a924c4b3d783.ts' for writing
frame=19198 fps=1476 q=-1.0 size=N/A time=00:13:20.97 bitrate=N/A speed=61.6x    
[hls @ 0x5619bc194a00] Opening '/config/transcodes/2bf330020f1030dcff08171a924c4b3d784.ts' for writing
[hls @ 0x5619bc194a00] Opening '/config/transcodes/2bf330020f1030dcff08171a924c4b3d785.ts' for writing
[hls @ 0x5619bc194a00] Opening '/config/transcodes/2bf330020f1030dcff08171a924c4b3d786.ts' for writing
[hls @ 0x5619bc194a00] Opening '/config/transcodes/2bf330020f1030dcff08171a924c4b3d787.ts' for writing
[hls @ 0x5619bc194a00] Opening '/config/transcodes/2bf330020f1030dcff08171a924c4b3d788.ts' for writing
[hls @ 0x5619bc194a00] Opening '/config/transcodes/2bf330020f1030dcff08171a924c4b3d789.ts' for writing
frame=19917 fps=1474 q=-1.0 size=N/A time=00:13:50.98 bitrate=N/A speed=61.5x    
[hls @ 0x5619bc194a00] Opening '/config/transcodes/2bf330020f1030dcff08171a924c4b3d790.ts' for writing
[hls @ 0x5619bc194a00] Opening '/config/transcodes/2bf330020f1030dcff08171a924c4b3d791.ts' for writing
[hls @ 0x5619bc194a00] Opening '/config/transcodes/2bf330020f1030dcff08171a924c4b3d792.ts' for writing
[hls @ 0x5619bc194a00] Opening '/config/transcodes/2bf330020f1030dcff08171a924c4b3d793.ts' for writing
[hls @ 0x5619bc194a00] Opening '/config/transcodes/2bf330020f1030dcff08171a924c4b3d794.ts' for writing
[hls @ 0x5619bc194a00] Opening '/config/transcodes/2bf330020f1030dcff08171a924c4b3d795.ts' for writing
frame=20650 fps=1474 q=-1.0 size=N/A time=00:14:21.57 bitrate=N/A speed=61.5x    
[hls @ 0x5619bc194a00] Opening '/config/transcodes/2bf330020f1030dcff08171a924c4b3d796.ts' for writing
[hls @ 0x5619bc194a00] Opening '/config/transcodes/2bf330020f1030dcff08171a924c4b3d797.ts' for writing
[hls @ 0x5619bc194a00] Opening '/config/transcodes/2bf330020f1030dcff08171a924c4b3d798.ts' for writing
[hls @ 0x5619bc194a00] Opening '/config/transcodes/2bf330020f1030dcff08171a924c4b3d799.ts' for writing
[hls @ 0x5619bc194a00] Opening '/config/transcodes/2bf330020f1030dcff08171a924c4b3d800.ts' for writing
[hls @ 0x5619bc194a00] Opening '/config/transcodes/2bf330020f1030dcff08171a924c4b3d801.ts' for writing
[hls @ 0x5619bc194a00] Opening '/config/transcodes/2bf330020f1030dcff08171a924c4b3d802.ts' for writing
frame=21414 fps=1476 q=-1.0 size=N/A time=00:14:53.38 bitrate=N/A speed=61.6x    
[hls @ 0x5619bc194a00] Opening '/config/transcodes/2bf330020f1030dcff08171a924c4b3d803.ts' for writing
[hls @ 0x5619bc194a00] Opening '/config/transcodes/2bf330020f1030dcff08171a924c4b3d804.ts' for writing
[hls @ 0x5619bc194a00] Opening '/config/transcodes/2bf330020f1030dcff08171a924c4b3d805.ts' for writing
[hls @ 0x5619bc194a00] Opening '/config/transcodes/2bf330020f1030dcff08171a924c4b3d806.ts' for writing
[hls @ 0x5619bc194a00] Opening '/config/transcodes/2bf330020f1030dcff08171a924c4b3d807.ts' for writing
[hls @ 0x5619bc194a00] Opening '/config/transcodes/2bf330020f1030dcff08171a924c4b3d808.ts' for writing
[hls @ 0x5619bc194a00] Opening '/config/transcodes/2bf330020f1030dcff08171a924c4b3d809.ts' for writing
frame=22207 fps=1479 q=-1.0 size=N/A time=00:15:26.41 bitrate=N/A speed=61.7x    
[hls @ 0x5619bc194a00] Opening '/config/transcodes/2bf330020f1030dcff08171a924c4b3d810.ts' for writing
[hls @ 0x5619bc194a00] Opening '/config/transcodes/2bf330020f1030dcff08171a924c4b3d811.ts' for writing
[hls @ 0x5619bc194a00] Opening '/config/transcodes/2bf330020f1030dcff08171a924c4b3d812.ts' for writing
[hls @ 0x5619bc194a00] Opening '/config/transcodes/2bf330020f1030dcff08171a924c4b3d813.ts' for writing
frame=22914 fps=1477 q=-1.0 size=N/A time=00:15:55.91 bitrate=N/A speed=61.6x    
[hls @ 0x5619bc194a00] Opening '/config/transcodes/2bf330020f1030dcff08171a924c4b3d814.ts' for writing
[hls @ 0x5619bc194a00] Opening '/config/transcodes/2bf330020f1030dcff08171a924c4b3d815.ts' for writing
[hls @ 0x5619bc194a00] Opening '/config/transcodes/2bf330020f1030dcff08171a924c4b3d816.ts' for writing
[hls @ 0x5619bc194a00] Opening '/config/transcodes/2bf330020f1030dcff08171a924c4b3d817.ts' for writing
[hls @ 0x5619bc194a00] Opening '/config/transcodes/2bf330020f1030dcff08171a924c4b3d818.ts' for writing
[hls @ 0x5619bc194a00] Opening '/config/transcodes/2bf330020f1030dcff08171a924c4b3d819.ts' for writing
[hls @ 0x5619bc194a00] Opening '/config/transcodes/2bf330020f1030dcff08171a924c4b3d820.ts' for writing
[hls @ 0x5619bc194a00] Opening '/config/transcodes/2bf330020f1030dcff08171a924c4b3d821.ts' for writing
frame=23617 fps=1475 q=-1.0 size=N/A time=00:16:25.26 bitrate=N/A speed=61.5x    
[hls @ 0x5619bc194a00] Opening '/config/transcodes/2bf330020f1030dcff08171a924c4b3d822.ts' for writing
[hls @ 0x5619bc194a00] Opening '/config/transcodes/2bf330020f1030dcff08171a924c4b3d823.ts' for writing
[hls @ 0x5619bc194a00] Opening '/config/transcodes/2bf330020f1030dcff08171a924c4b3d824.ts' for writing
[hls @ 0x5619bc194a00] Opening '/config/transcodes/2bf330020f1030dcff08171a924c4b3d825.ts' for writing
[hls @ 0x5619bc194a00] Opening '/config/transcodes/2bf330020f1030dcff08171a924c4b3d826.ts' for writing
frame=24344 fps=1474 q=-1.0 size=N/A time=00:16:55.41 bitrate=N/A speed=61.5x    
[hls @ 0x5619bc194a00] Opening '/config/transcodes/2bf330020f1030dcff08171a924c4b3d827.ts' for writing
[hls @ 0x5619bc194a00] Opening '/config/transcodes/2bf330020f1030dcff08171a924c4b3d828.ts' for writing
[hls @ 0x5619bc194a00] Opening '/config/transcodes/2bf330020f1030dcff08171a924c4b3d829.ts' for writing
frame=25076 fps=1474 q=-1.0 size=N/A time=00:17:26.06 bitrate=N/A speed=61.5x    
[hls @ 0x5619bc194a00] Opening '/config/transcodes/2bf330020f1030dcff08171a924c4b3d830.ts' for writing
[hls @ 0x5619bc194a00] Opening '/config/transcodes/2bf330020f1030dcff08171a924c4b3d831.ts' for writing
[hls @ 0x5619bc194a00] Opening '/config/transcodes/2bf330020f1030dcff08171a924c4b3d832.ts' for writing
[hls @ 0x5619bc194a00] Opening '/config/transcodes/2bf330020f1030dcff08171a924c4b3d833.ts' for writing
[hls @ 0x5619bc194a00] Opening '/config/transcodes/2bf330020f1030dcff08171a924c4b3d834.ts' for writing
[hls @ 0x5619bc194a00] Opening '/config/transcodes/2bf330020f1030dcff08171a924c4b3d835.ts' for writing
frame=25849 fps=1476 q=-1.0 size=N/A time=00:17:58.41 bitrate=N/A speed=61.6x    
[hls @ 0x5619bc194a00] Opening '/config/transcodes/2bf330020f1030dcff08171a924c4b3d836.ts' for writing
[hls @ 0x5619bc194a00] Opening '/config/transcodes/2bf330020f1030dcff08171a924c4b3d837.ts' for writing
[hls @ 0x5619bc194a00] Opening '/config/transcodes/2bf330020f1030dcff08171a924c4b3d838.ts' for writing
[hls @ 0x5619bc194a00] Opening '/config/transcodes/2bf330020f1030dcff08171a924c4b3d839.ts' for writing
[hls @ 0x5619bc194a00] Opening '/config/transcodes/2bf330020f1030dcff08171a924c4b3d840.ts' for writing
frame=26625 fps=1478 q=-1.0 size=N/A time=00:18:30.77 bitrate=N/A speed=61.7x    
[hls @ 0x5619bc194a00] Opening '/config/transcodes/2bf330020f1030dcff08171a924c4b3d841.ts' for writing
[hls @ 0x5619bc194a00] Opening '/config/transcodes/2bf330020f1030dcff08171a924c4b3d842.ts' for writing
[hls @ 0x5619bc194a00] Opening '/config/transcodes/2bf330020f1030dcff08171a924c4b3d843.ts' for writing
[hls @ 0x5619bc194a00] Opening '/config/transcodes/2bf330020f1030dcff08171a924c4b3d844.ts' for writing
[hls @ 0x5619bc194a00] Opening '/config/transcodes/2bf330020f1030dcff08171a924c4b3d845.ts' for writing
[hls @ 0x5619bc194a00] Opening '/config/transcodes/2bf330020f1030dcff08171a924c4b3d846.ts' for writing
[hls @ 0x5619bc194a00] Opening '/config/transcodes/2bf330020f1030dcff08171a924c4b3d847.ts' for writing
[hls @ 0x5619bc194a00] Opening '/config/transcodes/2bf330020f1030dcff08171a924c4b3d848.ts' for writing
frame=27388 fps=1480 q=-1.0 size=N/A time=00:19:02.41 bitrate=N/A speed=61.7x    
[hls @ 0x5619bc194a00] Opening '/config/transcodes/2bf330020f1030dcff08171a924c4b3d849.ts' for writing
[hls @ 0x5619bc194a00] Opening '/config/transcodes/2bf330020f1030dcff08171a924c4b3d850.ts' for writing
[hls @ 0x5619bc194a00] Opening '/config/transcodes/2bf330020f1030dcff08171a924c4b3d851.ts' for writing
frame=28177 fps=1482 q=-1.0 size=N/A time=00:19:35.30 bitrate=N/A speed=61.8x    
[hls @ 0x5619bc194a00] Opening '/config/transcodes/2bf330020f1030dcff08171a924c4b3d852.ts' for writing
[hls @ 0x5619bc194a00] Opening '/config/transcodes/2bf330020f1030dcff08171a924c4b3d853.ts' for writing
[hls @ 0x5619bc194a00] Opening '/config/transcodes/2bf330020f1030dcff08171a924c4b3d854.ts' for writing
[hls @ 0x5619bc194a00] Opening '/config/transcodes/2bf330020f1030dcff08171a924c4b3d855.ts' for writing
[hls @ 0x5619bc194a00] Opening '/config/transcodes/2bf330020f1030dcff08171a924c4b3d856.ts' for writing
[hls @ 0x5619bc194a00] Opening '/config/transcodes/2bf330020f1030dcff08171a924c4b3d857.ts' for writing
[hls @ 0x5619bc194a00] Opening '/config/transcodes/2bf330020f1030dcff08171a924c4b3d858.ts' for writing
frame=28966 fps=1485 q=-1.0 size=N/A time=00:20:08.43 bitrate=N/A speed=61.9x    
[hls @ 0x5619bc194a00] Opening '/config/transcodes/2bf330020f1030dcff08171a924c4b3d859.ts' for writing
[hls @ 0x5619bc194a00] Opening '/config/transcodes/2bf330020f1030dcff08171a924c4b3d860.ts' for writing
[hls @ 0x5619bc194a00] Opening '/config/transcodes/2bf330020f1030dcff08171a924c4b3d861.ts' for writing
[hls @ 0x5619bc194a00] Opening '/config/transcodes/2bf330020f1030dcff08171a924c4b3d862.ts' for writing
[hls @ 0x5619bc194a00] Opening '/config/transcodes/2bf330020f1030dcff08171a924c4b3d863.ts' for writing
[hls @ 0x5619bc194a00] Opening '/config/transcodes/2bf330020f1030dcff08171a924c4b3d864.ts' for writing
frame=29724 fps=1485 q=-1.0 size=N/A time=00:20:39.92 bitrate=N/A speed=  62x    
[hls @ 0x5619bc194a00] Opening '/config/transcodes/2bf330020f1030dcff08171a924c4b3d865.ts' for writing
[hls @ 0x5619bc194a00] Opening '/config/transcodes/2bf330020f1030dcff08171a924c4b3d866.ts' for writing
[hls @ 0x5619bc194a00] Opening '/config/transcodes/2bf330020f1030dcff08171a924c4b3d867.ts' for writing
[hls @ 0x5619bc194a00] Opening '/config/transcodes/2bf330020f1030dcff08171a924c4b3d868.ts' for writing
[hls @ 0x5619bc194a00] Opening '/config/transcodes/2bf330020f1030dcff08171a924c4b3d869.ts' for writing
[hls @ 0x5619bc194a00] Opening '/config/transcodes/2bf330020f1030dcff08171a924c4b3d870.ts' for writing
frame=30483 fps=1486 q=-1.0 size=N/A time=00:21:11.56 bitrate=N/A speed=  62x    
[hls @ 0x5619bc194a00] Opening '/config/transcodes/2bf330020f1030dcff08171a924c4b3d871.ts' for writing
[hls @ 0x5619bc194a00] Opening '/config/transcodes/2bf330020f1030dcff08171a924c4b3d872.ts' for writing
[hls @ 0x5619bc194a00] Opening '/config/transcodes/2bf330020f1030dcff08171a924c4b3d873.ts' for writing
[hls @ 0x5619bc194a00] Opening '/config/transcodes/2bf330020f1030dcff08171a924c4b3d874.ts' for writing
[hls @ 0x5619bc194a00] Opening '/config/transcodes/2bf330020f1030dcff08171a924c4b3d875.ts' for writing
frame=31209 fps=1485 q=-1.0 size=N/A time=00:21:41.83 bitrate=N/A speed=  62x    
[hls @ 0x5619bc194a00] Opening '/config/transcodes/2bf330020f1030dcff08171a924c4b3d876.ts' for writing
[hls @ 0x5619bc194a00] Opening '/config/transcodes/2bf330020f1030dcff08171a924c4b3d877.ts' for writing
[hls @ 0x5619bc194a00] Opening '/config/transcodes/2bf330020f1030dcff08171a924c4b3d878.ts' for writing
[hls @ 0x5619bc194a00] Opening '/config/transcodes/2bf330020f1030dcff08171a924c4b3d879.ts' for writing
[hls @ 0x5619bc194a00] Opening '/config/transcodes/2bf330020f1030dcff08171a924c4b3d880.ts' for writing
frame=31920 fps=1484 q=-1.0 size=N/A time=00:22:11.46 bitrate=N/A speed=61.9x    
[hls @ 0x5619bc194a00] Opening '/config/transcodes/2bf330020f1030dcff08171a924c4b3d881.ts' for writing
[hls @ 0x5619bc194a00] Opening '/config/transcodes/2bf330020f1030dcff08171a924c4b3d882.ts' for writing
[hls @ 0x5619bc194a00] Opening '/config/transcodes/2bf330020f1030dcff08171a924c4b3d883.ts' for writing
[hls @ 0x5619bc194a00] Opening '/config/transcodes/2bf330020f1030dcff08171a924c4b3d884.ts' for writing
frame=32649 fps=1483 q=-1.0 size=N/A time=00:22:42.03 bitrate=N/A speed=61.9x    
[hls @ 0x5619bc194a00] Opening '/config/transcodes/2bf330020f1030dcff08171a924c4b3d885.ts' for writing
[hls @ 0x5619bc194a00] Opening '/config/transcodes/2bf330020f1030dcff08171a924c4b3d886.ts' for writing
[hls @ 0x5619bc194a00] Opening '/config/transcodes/2bf330020f1030dcff08171a924c4b3d887.ts' for writing
[hls @ 0x5619bc194a00] Opening '/config/transcodes/2bf330020f1030dcff08171a924c4b3d888.ts' for writing
[hls @ 0x5619bc194a00] Opening '/config/transcodes/2bf330020f1030dcff08171a924c4b3d889.ts' for writing
[hls @ 0x5619bc194a00] Opening '/config/transcodes/2bf330020f1030dcff08171a924c4b3d890.ts' for writing
frame=33375 fps=1482 q=-1.0 size=N/A time=00:23:12.33 bitrate=N/A speed=61.8x    
[hls @ 0x5619bc194a00] Opening '/config/transcodes/2bf330020f1030dcff08171a924c4b3d891.ts' for writing
[hls @ 0x5619bc194a00] Opening '/config/transcodes/2bf330020f1030dcff08171a924c4b3d892.ts' for writing
[hls @ 0x5619bc194a00] Opening '/config/transcodes/2bf330020f1030dcff08171a924c4b3d893.ts' for writing
[hls @ 0x5619bc194a00] Opening '/config/transcodes/2bf330020f1030dcff08171a924c4b3d894.ts' for writing
[hls @ 0x5619bc194a00] Opening '/config/transcodes/2bf330020f1030dcff08171a924c4b3d895.ts' for writing
frame=34106 fps=1482 q=-1.0 size=N/A time=00:23:42.58 bitrate=N/A speed=61.8x    
[hls @ 0x5619bc194a00] Opening '/config/transcodes/2bf330020f1030dcff08171a924c4b3d896.ts' for writing
[hls @ 0x5619bc194a00] Opening '/config/transcodes/2bf330020f1030dcff08171a924c4b3d897.ts' for writing
[hls @ 0x5619bc194a00] Opening '/config/transcodes/2bf330020f1030dcff08171a924c4b3d898.ts' for writing
[hls @ 0x5619bc194a00] Opening '/config/transcodes/2bf330020f1030dcff08171a924c4b3d899.ts' for writing
[hls @ 0x5619bc194a00] Opening '/config/transcodes/2bf330020f1030dcff08171a924c4b3d900.ts' for writing
frame=34827 fps=1481 q=-1.0 size=N/A time=00:24:12.74 bitrate=N/A speed=61.8x    
[hls @ 0x5619bc194a00] Opening '/config/transcodes/2bf330020f1030dcff08171a924c4b3d901.ts' for writing
[hls @ 0x5619bc194a00] Opening '/config/transcodes/2bf330020f1030dcff08171a924c4b3d902.ts' for writing
[hls @ 0x5619bc194a00] Opening '/config/transcodes/2bf330020f1030dcff08171a924c4b3d903.ts' for writing
[hls @ 0x5619bc194a00] Opening '/config/transcodes/2bf330020f1030dcff08171a924c4b3d904.ts' for writing
frame=35558 fps=1481 q=-1.0 size=N/A time=00:24:43.33 bitrate=N/A speed=61.8x    
[hls @ 0x5619bc194a00] Opening '/config/transcodes/2bf330020f1030dcff08171a924c4b3d905.ts' for writing
[hls @ 0x5619bc194a00] Opening '/config/transcodes/2bf330020f1030dcff08171a924c4b3d906.ts' for writing
[hls @ 0x5619bc194a00] Opening '/config/transcodes/2bf330020f1030dcff08171a924c4b3d907.ts' for writing
[hls @ 0x5619bc194a00] Opening '/config/transcodes/2bf330020f1030dcff08171a924c4b3d908.ts' for writing
[hls @ 0x5619bc194a00] Opening '/config/transcodes/2bf330020f1030dcff08171a924c4b3d909.ts' for writing
frame=36290 fps=1480 q=-1.0 size=N/A time=00:25:13.84 bitrate=N/A speed=61.8x    
[hls @ 0x5619bc194a00] Opening '/config/transcodes/2bf330020f1030dcff08171a924c4b3d910.ts' for writing
[hls @ 0x5619bc194a00] Opening '/config/transcodes/2bf330020f1030dcff08171a924c4b3d911.ts' for writing
[hls @ 0x5619bc194a00] Opening '/config/transcodes/2bf330020f1030dcff08171a924c4b3d912.ts' for writing
[hls @ 0x5619bc194a00] Opening '/config/transcodes/2bf330020f1030dcff08171a924c4b3d913.ts' for writing
frame=37053 fps=1481 q=-1.0 size=N/A time=00:25:45.67 bitrate=N/A speed=61.8x    
[hls @ 0x5619bc194a00] Opening '/config/transcodes/2bf330020f1030dcff08171a924c4b3d914.ts' for writing
[hls @ 0x5619bc194a00] Opening '/config/transcodes/2bf330020f1030dcff08171a924c4b3d915.ts' for writing
[hls @ 0x5619bc194a00] Opening '/config/transcodes/2bf330020f1030dcff08171a924c4b3d916.ts' for writing
frame=37760 fps=1480 q=-1.0 size=N/A time=00:26:15.11 bitrate=N/A speed=61.7x    
[hls @ 0x5619bc194a00] Opening '/config/transcodes/2bf330020f1030dcff08171a924c4b3d917.ts' for writing
[hls @ 0x5619bc194a00] Opening '/config/transcodes/2bf330020f1030dcff08171a924c4b3d918.ts' for writing
[hls @ 0x5619bc194a00] Opening '/config/transcodes/2bf330020f1030dcff08171a924c4b3d919.ts' for writing
frame=38482 fps=1479 q=-1.0 size=N/A time=00:26:45.19 bitrate=N/A speed=61.7x    
[hls @ 0x5619bc194a00] Opening '/config/transcodes/2bf330020f1030dcff08171a924c4b3d920.ts' for writing
[hls @ 0x5619bc194a00] Opening '/config/transcodes/2bf330020f1030dcff08171a924c4b3d921.ts' for writing
[hls @ 0x5619bc194a00] Opening '/config/transcodes/2bf330020f1030dcff08171a924c4b3d922.ts' for writing
[hls @ 0x5619bc194a00] Opening '/config/transcodes/2bf330020f1030dcff08171a924c4b3d923.ts' for writing
[hls @ 0x5619bc194a00] Opening '/config/transcodes/2bf330020f1030dcff08171a924c4b3d924.ts' for writing
[hls @ 0x5619bc194a00] Opening '/config/transcodes/2bf330020f1030dcff08171a924c4b3d925.ts' for writing
frame=39224 fps=1479 q=-1.0 size=N/A time=00:27:16.27 bitrate=N/A speed=61.7x    
[hls @ 0x5619bc194a00] Opening '/config/transcodes/2bf330020f1030dcff08171a924c4b3d926.ts' for writing
[hls @ 0x5619bc194a00] Opening '/config/transcodes/2bf330020f1030dcff08171a924c4b3d927.ts' for writing
[hls @ 0x5619bc194a00] Opening '/config/transcodes/2bf330020f1030dcff08171a924c4b3d928.ts' for writing
[hls @ 0x5619bc194a00] Opening '/config/transcodes/2bf330020f1030dcff08171a924c4b3d929.ts' for writing
[hls @ 0x5619bc194a00] Opening '/config/transcodes/2bf330020f1030dcff08171a924c4b3d930.ts' for writing
[hls @ 0x5619bc194a00] Opening '/config/transcodes/2bf330020f1030dcff08171a924c4b3d931.ts' for writing
[hls @ 0x5619bc194a00] Opening '/config/transcodes/2bf330020f1030dcff08171a924c4b3d932.ts' for writing
[hls @ 0x5619bc194a00] Opening '/config/transcodes/2bf330020f1030dcff08171a924c4b3d933.ts' for writing
[hls @ 0x5619bc194a00] Opening '/config/transcodes/2bf330020f1030dcff08171a924c4b3d934.ts' for writing
[hls @ 0x5619bc194a00] Opening '/config/transcodes/2bf330020f1030dcff08171a924c4b3d935.ts' for writing
frame=39947 fps=1479 q=-1.0 size=N/A time=00:27:46.44 bitrate=N/A speed=61.7x    
[hls @ 0x5619bc194a00] Opening '/config/transcodes/2bf330020f1030dcff08171a924c4b3d936.ts' for writing
[hls @ 0x5619bc194a00] Opening '/config/transcodes/2bf330020f1030dcff08171a924c4b3d937.ts' for writing
[hls @ 0x5619bc194a00] Opening '/config/transcodes/2bf330020f1030dcff08171a924c4b3d938.ts' for writing
[hls @ 0x5619bc194a00] Opening '/config/transcodes/2bf330020f1030dcff08171a924c4b3d939.ts' for writing
[hls @ 0x5619bc194a00] Opening '/config/transcodes/2bf330020f1030dcff08171a924c4b3d940.ts' for writing
frame=40699 fps=1479 q=-1.0 size=N/A time=00:28:17.61 bitrate=N/A speed=61.7x    
[hls @ 0x5619bc194a00] Opening '/config/transcodes/2bf330020f1030dcff08171a924c4b3d941.ts' for writing
[hls @ 0x5619bc194a00] Opening '/config/transcodes/2bf330020f1030dcff08171a924c4b3d942.ts' for writing
[hls @ 0x5619bc194a00] Opening '/config/transcodes/2bf330020f1030dcff08171a924c4b3d943.ts' for writing
[hls @ 0x5619bc194a00] Opening '/config/transcodes/2bf330020f1030dcff08171a924c4b3d944.ts' for writing
frame=41459 fps=1480 q=-1.0 size=N/A time=00:28:49.33 bitrate=N/A speed=61.7x    
[hls @ 0x5619bc194a00] Opening '/config/transcodes/2bf330020f1030dcff08171a924c4b3d945.ts' for writing
[hls @ 0x5619bc194a00] Opening '/config/transcodes/2bf330020f1030dcff08171a924c4b3d946.ts' for writing
[hls @ 0x5619bc194a00] Opening '/config/transcodes/2bf330020f1030dcff08171a924c4b3d947.ts' for writing
[hls @ 0x5619bc194a00] Opening '/config/transcodes/2bf330020f1030dcff08171a924c4b3d948.ts' for writing
[hls @ 0x5619bc194a00] Opening '/config/transcodes/2bf330020f1030dcff08171a924c4b3d949.ts' for writing
[hls @ 0x5619bc194a00] Opening '/config/transcodes/2bf330020f1030dcff08171a924c4b3d950.ts' for writing
[hls @ 0x5619bc194a00] Opening '/config/transcodes/2bf330020f1030dcff08171a924c4b3d951.ts' for writing
frame=42162 fps=1479 q=-1.0 size=N/A time=00:29:18.73 bitrate=N/A speed=61.7x    
[hls @ 0x5619bc194a00] Opening '/config/transcodes/2bf330020f1030dcff08171a924c4b3d952.ts' for writing
[hls @ 0x5619bc194a00] Opening '/config/transcodes/2bf330020f1030dcff08171a924c4b3d953.ts' for writing
[hls @ 0x5619bc194a00] Opening '/config/transcodes/2bf330020f1030dcff08171a924c4b3d954.ts' for writing
[hls @ 0x5619bc194a00] Opening '/config/transcodes/2bf330020f1030dcff08171a924c4b3d955.ts' for writing
[hls @ 0x5619bc194a00] Opening '/config/transcodes/2bf330020f1030dcff08171a924c4b3d956.ts' for writing
frame=42927 fps=1479 q=-1.0 size=N/A time=00:29:50.66 bitrate=N/A speed=61.7x    
[hls @ 0x5619bc194a00] Opening '/config/transcodes/2bf330020f1030dcff08171a924c4b3d957.ts' for writing
[hls @ 0x5619bc194a00] Opening '/config/transcodes/2bf330020f1030dcff08171a924c4b3d958.ts' for writing
[hls @ 0x5619bc194a00] Opening '/config/transcodes/2bf330020f1030dcff08171a924c4b3d959.ts' for writing
[hls @ 0x5619bc194a00] Opening '/config/transcodes/2bf330020f1030dcff08171a924c4b3d960.ts' for writing
[hls @ 0x5619bc194a00] Opening '/config/transcodes/2bf330020f1030dcff08171a924c4b3d961.ts' for writing
[hls @ 0x5619bc194a00] Opening '/config/transcodes/2bf330020f1030dcff08171a924c4b3d962.ts' for writing
frame=43729 fps=1482 q=-1.0 size=N/A time=00:30:24.01 bitrate=N/A speed=61.8x    
[hls @ 0x5619bc194a00] Opening '/config/transcodes/2bf330020f1030dcff08171a924c4b3d963.ts' for writing
[hls @ 0x5619bc194a00] Opening '/config/transcodes/2bf330020f1030dcff08171a924c4b3d964.ts' for writing
[hls @ 0x5619bc194a00] Opening '/config/transcodes/2bf330020f1030dcff08171a924c4b3d965.ts' for writing
[hls @ 0x5619bc194a00] Opening '/config/transcodes/2bf330020f1030dcff08171a924c4b3d966.ts' for writing
[hls @ 0x5619bc194a00] Opening '/config/transcodes/2bf330020f1030dcff08171a924c4b3d967.ts' for writing
[hls @ 0x5619bc194a00] Opening '/config/transcodes/2bf330020f1030dcff08171a924c4b3d968.ts' for writing
frame=44490 fps=1482 q=-1.0 size=N/A time=00:30:55.62 bitrate=N/A speed=61.8x    
[hls @ 0x5619bc194a00] Opening '/config/transcodes/2bf330020f1030dcff08171a924c4b3d969.ts' for writing
[hls @ 0x5619bc194a00] Opening '/config/transcodes/2bf330020f1030dcff08171a924c4b3d970.ts' for writing
[hls @ 0x5619bc194a00] Opening '/config/transcodes/2bf330020f1030dcff08171a924c4b3d971.ts' for writing
frame=45226 fps=1482 q=-1.0 size=N/A time=00:31:26.34 bitrate=N/A speed=61.8x    
[hls @ 0x5619bc194a00] Opening '/config/transcodes/2bf330020f1030dcff08171a924c4b3d972.ts' for writing
[hls @ 0x5619bc194a00] Opening '/config/transcodes/2bf330020f1030dcff08171a924c4b3d973.ts' for writing
[hls @ 0x5619bc194a00] Opening '/config/transcodes/2bf330020f1030dcff08171a924c4b3d974.ts' for writing
[hls @ 0x5619bc194a00] Opening '/config/transcodes/2bf330020f1030dcff08171a924c4b3d975.ts' for writing
[hls @ 0x5619bc194a00] Opening '/config/transcodes/2bf330020f1030dcff08171a924c4b3d976.ts' for writing
[hls @ 0x5619bc194a00] Opening '/config/transcodes/2bf330020f1030dcff08171a924c4b3d977.ts' for writing
[hls @ 0x5619bc194a00] Opening '/config/transcodes/2bf330020f1030dcff08171a924c4b3d978.ts' for writing
frame=45921 fps=1480 q=-1.0 size=N/A time=00:31:55.46 bitrate=N/A speed=61.8x    
[hls @ 0x5619bc194a00] Opening '/config/transcodes/2bf330020f1030dcff08171a924c4b3d979.ts' for writing
[hls @ 0x5619bc194a00] Opening '/config/transcodes/2bf330020f1030dcff08171a924c4b3d980.ts' for writing
[hls @ 0x5619bc194a00] Opening '/config/transcodes/2bf330020f1030dcff08171a924c4b3d981.ts' for writing
frame=46630 fps=1479 q=-1.0 size=N/A time=00:32:25.03 bitrate=N/A speed=61.7x    
[hls @ 0x5619bc194a00] Opening '/config/transcodes/2bf330020f1030dcff08171a924c4b3d982.ts' for writing
[hls @ 0x5619bc194a00] Opening '/config/transcodes/2bf330020f1030dcff08171a924c4b3d983.ts' for writing
[hls @ 0x5619bc194a00] Opening '/config/transcodes/2bf330020f1030dcff08171a924c4b3d984.ts' for writing
[hls @ 0x5619bc194a00] Opening '/config/transcodes/2bf330020f1030dcff08171a924c4b3d985.ts' for writing
[hls @ 0x5619bc194a00] Opening '/config/transcodes/2bf330020f1030dcff08171a924c4b3d986.ts' for writing
[hls @ 0x5619bc194a00] Opening '/config/transcodes/2bf330020f1030dcff08171a924c4b3d987.ts' for writing
[hls @ 0x5619bc194a00] Opening '/config/transcodes/2bf330020f1030dcff08171a924c4b3d988.ts' for writing
frame=47385 fps=1480 q=-1.0 size=N/A time=00:32:56.45 bitrate=N/A speed=61.7x    
[hls @ 0x5619bc194a00] Opening '/config/transcodes/2bf330020f1030dcff08171a924c4b3d989.ts' for writing
[hls @ 0x5619bc194a00] Opening '/config/transcodes/2bf330020f1030dcff08171a924c4b3d990.ts' for writing
[hls @ 0x5619bc194a00] Opening '/config/transcodes/2bf330020f1030dcff08171a924c4b3d991.ts' for writing
[hls @ 0x5619bc194a00] Opening '/config/transcodes/2bf330020f1030dcff08171a924c4b3d992.ts' for writing
frame=48179 fps=1482 q=-1.0 size=N/A time=00:33:29.61 bitrate=N/A speed=61.8x    
[hls @ 0x5619bc194a00] Opening '/config/transcodes/2bf330020f1030dcff08171a924c4b3d993.ts' for writing
[hls @ 0x5619bc194a00] Opening '/config/transcodes/2bf330020f1030dcff08171a924c4b3d994.ts' for writing
[hls @ 0x5619bc194a00] Opening '/config/transcodes/2bf330020f1030dcff08171a924c4b3d995.ts' for writing
[hls @ 0x5619bc194a00] Opening '/config/transcodes/2bf330020f1030dcff08171a924c4b3d996.ts' for writing
frame=48963 fps=1483 q=-1.0 size=N/A time=00:34:02.48 bitrate=N/A speed=61.9x    
[hls @ 0x5619bc194a00] Opening '/config/transcodes/2bf330020f1030dcff08171a924c4b3d997.ts' for writing
[hls @ 0x5619bc194a00] Opening '/config/transcodes/2bf330020f1030dcff08171a924c4b3d998.ts' for writing
[hls @ 0x5619bc194a00] Opening '/config/transcodes/2bf330020f1030dcff08171a924c4b3d999.ts' for writing
frame=49696 fps=1483 q=-1.0 size=N/A time=00:34:32.82 bitrate=N/A speed=61.8x    
[hls @ 0x5619bc194a00] Opening '/config/transcodes/2bf330020f1030dcff08171a924c4b3d1000.ts' for writing
[hls @ 0x5619bc194a00] Opening '/config/transcodes/2bf330020f1030dcff08171a924c4b3d1001.ts' for writing
[hls @ 0x5619bc194a00] Opening '/config/transcodes/2bf330020f1030dcff08171a924c4b3d1002.ts' for writing
[hls @ 0x5619bc194a00] Opening '/config/transcodes/2bf330020f1030dcff08171a924c4b3d1003.ts' for writing
[hls @ 0x5619bc194a00] Opening '/config/transcodes/2bf330020f1030dcff08171a924c4b3d1004.ts' for writing
[hls @ 0x5619bc194a00] Opening '/config/transcodes/2bf330020f1030dcff08171a924c4b3d1005.ts' for writing
frame=50463 fps=1483 q=-1.0 size=N/A time=00:35:04.82 bitrate=N/A speed=61.9x    
[hls @ 0x5619bc194a00] Opening '/config/transcodes/2bf330020f1030dcff08171a924c4b3d1006.ts' for writing
[hls @ 0x5619bc194a00] Opening '/config/transcodes/2bf330020f1030dcff08171a924c4b3d1007.ts' for writing
[hls @ 0x5619bc194a00] Opening '/config/transcodes/2bf330020f1030dcff08171a924c4b3d1008.ts' for writing
[hls @ 0x5619bc194a00] Opening '/config/transcodes/2bf330020f1030dcff08171a924c4b3d1009.ts' for writing
[hls @ 0x5619bc194a00] Opening '/config/transcodes/2bf330020f1030dcff08171a924c4b3d1010.ts' for writing
frame=51179 fps=1483 q=-1.0 size=N/A time=00:35:34.85 bitrate=N/A speed=61.8x    
[hls @ 0x5619bc194a00] Opening '/config/transcodes/2bf330020f1030dcff08171a924c4b3d1011.ts' for writing
[hls @ 0x5619bc194a00] Opening '/config/transcodes/2bf330020f1030dcff08171a924c4b3d1012.ts' for writing
[hls @ 0x5619bc194a00] Opening '/config/transcodes/2bf330020f1030dcff08171a924c4b3d1013.ts' for writing
[hls @ 0x5619bc194a00] Opening '/config/transcodes/2bf330020f1030dcff08171a924c4b3d1014.ts' for writing
[hls @ 0x5619bc194a00] Opening '/config/transcodes/2bf330020f1030dcff08171a924c4b3d1015.ts' for writing
frame=51946 fps=1483 q=-1.0 size=N/A time=00:36:06.73 bitrate=N/A speed=61.9x    
[hls @ 0x5619bc194a00] Opening '/config/transcodes/2bf330020f1030dcff08171a924c4b3d1016.ts' for writing
[hls @ 0x5619bc194a00] Opening '/config/transcodes/2bf330020f1030dcff08171a924c4b3d1017.ts' for writing
[hls @ 0x5619bc194a00] Opening '/config/transcodes/2bf330020f1030dcff08171a924c4b3d1018.ts' for writing
[hls @ 0x5619bc194a00] Opening '/config/transcodes/2bf330020f1030dcff08171a924c4b3d1019.ts' for writing
[hls @ 0x5619bc194a00] Opening '/config/transcodes/2bf330020f1030dcff08171a924c4b3d1020.ts' for writing
[hls @ 0x5619bc194a00] Opening '/config/transcodes/2bf330020f1030dcff08171a924c4b3d1021.ts' for writing
[hls @ 0x5619bc194a00] Opening '/config/transcodes/2bf330020f1030dcff08171a924c4b3d1022.ts' for writing
frame=52699 fps=1484 q=-1.0 size=N/A time=00:36:38.28 bitrate=N/A speed=61.9x    
[hls @ 0x5619bc194a00] Opening '/config/transcodes/2bf330020f1030dcff08171a924c4b3d1023.ts' for writing
[hls @ 0x5619bc194a00] Opening '/config/transcodes/2bf330020f1030dcff08171a924c4b3d1024.ts' for writing
[hls @ 0x5619bc194a00] Opening '/config/transcodes/2bf330020f1030dcff08171a924c4b3d1025.ts' for writing
frame=53491 fps=1485 q=-1.0 size=N/A time=00:37:11.09 bitrate=N/A speed=61.9x    
[hls @ 0x5619bc194a00] Opening '/config/transcodes/2bf330020f1030dcff08171a924c4b3d1026.ts' for writing
[hls @ 0x5619bc194a00] Opening '/config/transcodes/2bf330020f1030dcff08171a924c4b3d1027.ts' for writing
[hls @ 0x5619bc194a00] Opening '/config/transcodes/2bf330020f1030dcff08171a924c4b3d1028.ts' for writing
[hls @ 0x5619bc194a00] Opening '/config/transcodes/2bf330020f1030dcff08171a924c4b3d1029.ts' for writing
[hls @ 0x5619bc194a00] Opening '/config/transcodes/2bf330020f1030dcff08171a924c4b3d1030.ts' for writing
[hls @ 0x5619bc194a00] Opening '/config/transcodes/2bf330020f1030dcff08171a924c4b3d1031.ts' for writing
frame=54216 fps=1485 q=-1.0 size=N/A time=00:37:41.51 bitrate=N/A speed=61.9x    
[hls @ 0x5619bc194a00] Opening '/config/transcodes/2bf330020f1030dcff08171a924c4b3d1032.ts' for writing
[hls @ 0x5619bc194a00] Opening '/config/transcodes/2bf330020f1030dcff08171a924c4b3d1033.ts' for writing
[hls @ 0x5619bc194a00] Opening '/config/transcodes/2bf330020f1030dcff08171a924c4b3d1034.ts' for writing
[hls @ 0x5619bc194a00] Opening '/config/transcodes/2bf330020f1030dcff08171a924c4b3d1035.ts' for writing
frame=54980 fps=1485 q=-1.0 size=N/A time=00:38:13.17 bitrate=N/A speed=61.9x    
[hls @ 0x5619bc194a00] Opening '/config/transcodes/2bf330020f1030dcff08171a924c4b3d1036.ts' for writing
[hls @ 0x5619bc194a00] Opening '/config/transcodes/2bf330020f1030dcff08171a924c4b3d1037.ts' for writing
[hls @ 0x5619bc194a00] Opening '/config/transcodes/2bf330020f1030dcff08171a924c4b3d1038.ts' for writing
[hls @ 0x5619bc194a00] Opening '/config/transcodes/2bf330020f1030dcff08171a924c4b3d1039.ts' for writing
frame=55636 fps=1483 q=-1.0 size=N/A time=00:38:40.56 bitrate=N/A speed=61.8x    
[hls @ 0x5619bc194a00] Opening '/config/transcodes/2bf330020f1030dcff08171a924c4b3d1040.ts' for writing
[hls @ 0x5619bc194a00] Opening '/config/transcodes/2bf330020f1030dcff08171a924c4b3d1041.ts' for writing
[hls @ 0x5619bc194a00] Opening '/config/transcodes/2bf330020f1030dcff08171a924c4b3d1042.ts' for writing
[hls @ 0x5619bc194a00] Opening '/config/transcodes/2bf330020f1030dcff08171a924c4b3d1043.ts' for writing
[hls @ 0x5619bc194a00] Opening '/config/transcodes/2bf330020f1030dcff08171a924c4b3d1044.ts' for writing
[hls @ 0x5619bc194a00] Opening '/config/transcodes/2bf330020f1030dcff08171a924c4b3d1045.ts' for writing
[hls @ 0x5619bc194a00] Opening '/config/transcodes/2bf330020f1030dcff08171a924c4b3d1046.ts' for writing
frame=56356 fps=1482 q=-1.0 size=N/A time=00:39:10.73 bitrate=N/A speed=61.8x    
[hls @ 0x5619bc194a00] Opening '/config/transcodes/2bf330020f1030dcff08171a924c4b3d1047.ts' for writing
[hls @ 0x5619bc194a00] Opening '/config/transcodes/2bf330020f1030dcff08171a924c4b3d1048.ts' for writing
[hls @ 0x5619bc194a00] Opening '/config/transcodes/2bf330020f1030dcff08171a924c4b3d1049.ts' for writing
frame=57113 fps=1483 q=-1.0 size=N/A time=00:39:42.32 bitrate=N/A speed=61.8x    
[hls @ 0x5619bc194a00] Opening '/config/transcodes/2bf330020f1030dcff08171a924c4b3d1050.ts' for writing
[hls @ 0x5619bc194a00] Opening '/config/transcodes/2bf330020f1030dcff08171a924c4b3d1051.ts' for writing
[hls @ 0x5619bc194a00] Opening '/config/transcodes/2bf330020f1030dcff08171a924c4b3d1052.ts' for writing
[hls @ 0x5619bc194a00] Opening '/config/transcodes/2bf330020f1030dcff08171a924c4b3d1053.ts' for writing
[hls @ 0x5619bc194a00] Opening '/config/transcodes/2bf330020f1030dcff08171a924c4b3d1054.ts' for writing
[hls @ 0x5619bc194a00] Opening '/config/transcodes/2bf330020f1030dcff08171a924c4b3d1055.ts' for writing
[hls @ 0x5619bc194a00] Opening '/config/transcodes/2bf330020f1030dcff08171a924c4b3d1056.ts' for writing
frame=57862 fps=1483 q=-1.0 size=N/A time=00:40:13.45 bitrate=N/A speed=61.9x    
[hls @ 0x5619bc194a00] Opening '/config/transcodes/2bf330020f1030dcff08171a924c4b3d1057.ts' for writing
[hls @ 0x5619bc194a00] Opening '/config/transcodes/2bf330020f1030dcff08171a924c4b3d1058.ts' for writing
[hls @ 0x5619bc194a00] Opening '/config/transcodes/2bf330020f1030dcff08171a924c4b3d1059.ts' for writing
[hls @ 0x5619bc194a00] Opening '/config/transcodes/2bf330020f1030dcff08171a924c4b3d1060.ts' for writing
[hls @ 0x5619bc194a00] Opening '/config/transcodes/2bf330020f1030dcff08171a924c4b3d1061.ts' for writing
frame=58613 fps=1483 q=-1.0 size=N/A time=00:40:44.72 bitrate=N/A speed=61.9x    
[hls @ 0x5619bc194a00] Opening '/config/transcodes/2bf330020f1030dcff08171a924c4b3d1062.ts' for writing
[hls @ 0x5619bc194a00] Opening '/config/transcodes/2bf330020f1030dcff08171a924c4b3d1063.ts' for writing
[hls @ 0x5619bc194a00] Opening '/config/transcodes/2bf330020f1030dcff08171a924c4b3d1064.ts' for writing
[hls @ 0x5619bc194a00] Opening '/config/transcodes/2bf330020f1030dcff08171a924c4b3d1065.ts' for writing
frame=59351 fps=1483 q=-1.0 size=N/A time=00:41:15.65 bitrate=N/A speed=61.9x    
[hls @ 0x5619bc194a00] Opening '/config/transcodes/2bf330020f1030dcff08171a924c4b3d1066.ts' for writing
[hls @ 0x5619bc194a00] Opening '/config/transcodes/2bf330020f1030dcff08171a924c4b3d1067.ts' for writing
[hls @ 0x5619bc194a00] Opening '/config/transcodes/2bf330020f1030dcff08171a924c4b3d1068.ts' for writing
[hls @ 0x5619bc194a00] Opening '/config/transcodes/2bf330020f1030dcff08171a924c4b3d1069.ts' for writing
[hls @ 0x5619bc194a00] Opening '/config/transcodes/2bf330020f1030dcff08171a924c4b3d1070.ts' for writing
[hls @ 0x5619bc194a00] Opening '/config/transcodes/2bf330020f1030dcff08171a924c4b3d1071.ts' for writing
frame=60099 fps=1483 q=-1.0 size=N/A time=00:41:46.67 bitrate=N/A speed=61.9x    
[hls @ 0x5619bc194a00] Opening '/config/transcodes/2bf330020f1030dcff08171a924c4b3d1072.ts' for writing
[hls @ 0x5619bc194a00] Opening '/config/transcodes/2bf330020f1030dcff08171a924c4b3d1073.ts' for writing
[hls @ 0x5619bc194a00] Opening '/config/transcodes/2bf330020f1030dcff08171a924c4b3d1074.ts' for writing
frame=60831 fps=1483 q=-1.0 size=N/A time=00:42:17.29 bitrate=N/A speed=61.9x    
[hls @ 0x5619bc194a00] Opening '/config/transcodes/2bf330020f1030dcff08171a924c4b3d1075.ts' for writing
[hls @ 0x5619bc194a00] Opening '/config/transcodes/2bf330020f1030dcff08171a924c4b3d1076.ts' for writing
[hls @ 0x5619bc194a00] Opening '/config/transcodes/2bf330020f1030dcff08171a924c4b3d1077.ts' for writing
[hls @ 0x5619bc194a00] Opening '/config/transcodes/2bf330020f1030dcff08171a924c4b3d1078.ts' for writing
[hls @ 0x5619bc194a00] Opening '/config/transcodes/2bf330020f1030dcff08171a924c4b3d1079.ts' for writing
[hls @ 0x5619bc194a00] Opening '/config/transcodes/2bf330020f1030dcff08171a924c4b3d1080.ts' for writing
frame=61521 fps=1482 q=-1.0 size=N/A time=00:42:46.13 bitrate=N/A speed=61.8x    
[hls @ 0x5619bc194a00] Opening '/config/transcodes/2bf330020f1030dcff08171a924c4b3d1081.ts' for writing
[hls @ 0x5619bc194a00] Opening '/config/transcodes/2bf330020f1030dcff08171a924c4b3d1082.ts' for writing
[hls @ 0x5619bc194a00] Opening '/config/transcodes/2bf330020f1030dcff08171a924c4b3d1083.ts' for writing
[hls @ 0x5619bc194a00] Opening '/config/transcodes/2bf330020f1030dcff08171a924c4b3d1084.ts' for writing
[hls @ 0x5619bc194a00] Opening '/config/transcodes/2bf330020f1030dcff08171a924c4b3d1085.ts' for writing
[hls @ 0x5619bc194a00] Opening '/config/transcodes/2bf330020f1030dcff08171a924c4b3d1086.ts' for writing
[hls @ 0x5619bc194a00] Opening '/config/transcodes/2bf330020f1030dcff08171a924c4b3d1087.ts' for writing
frame=62210 fps=1480 q=-1.0 size=N/A time=00:43:14.93 bitrate=N/A speed=61.8x    
[hls @ 0x5619bc194a00] Opening '/config/transcodes/2bf330020f1030dcff08171a924c4b3d1088.ts' for writing
[hls @ 0x5619bc194a00] Opening '/config/transcodes/2bf330020f1030dcff08171a924c4b3d1089.ts' for writing
[hls @ 0x5619bc194a00] Opening '/config/transcodes/2bf330020f1030dcff08171a924c4b3d1090.ts' for writing
[hls @ 0x5619bc194a00] Opening '/config/transcodes/2bf330020f1030dcff08171a924c4b3d1091.ts' for writing
[hls @ 0x5619bc194a00] Opening '/config/transcodes/2bf330020f1030dcff08171a924c4b3d1092.ts' for writing
[hls @ 0x5619bc194a00] Opening '/config/transcodes/2bf330020f1030dcff08171a924c4b3d1093.ts' for writing
[hls @ 0x5619bc194a00] Opening '/config/transcodes/2bf330020f1030dcff08171a924c4b3d1094.ts' for writing
frame=62941 fps=1480 q=-1.0 size=N/A time=00:43:45.33 bitrate=N/A speed=61.7x    
[hls @ 0x5619bc194a00] Opening '/config/transcodes/2bf330020f1030dcff08171a924c4b3d1095.ts' for writing
[hls @ 0x5619bc194a00] Opening '/config/transcodes/2bf330020f1030dcff08171a924c4b3d1096.ts' for writing
[hls @ 0x5619bc194a00] Opening '/config/transcodes/2bf330020f1030dcff08171a924c4b3d1097.ts' for writing
[hls @ 0x5619bc194a00] Opening '/config/transcodes/2bf330020f1030dcff08171a924c4b3d1098.ts' for writing
frame=63660 fps=1480 q=-1.0 size=N/A time=00:44:15.17 bitrate=N/A speed=61.7x    
[hls @ 0x5619bc194a00] Opening '/config/transcodes/2bf330020f1030dcff08171a924c4b3d1099.ts' for writing
[hls @ 0x5619bc194a00] Opening '/config/transcodes/2bf330020f1030dcff08171a924c4b3d1100.ts' for writing
[hls @ 0x5619bc194a00] Opening '/config/transcodes/2bf330020f1030dcff08171a924c4b3d1101.ts' for writing
[hls @ 0x5619bc194a00] Opening '/config/transcodes/2bf330020f1030dcff08171a924c4b3d1102.ts' for writing
frame=64389 fps=1479 q=-1.0 size=N/A time=00:44:45.87 bitrate=N/A speed=61.7x    
[hls @ 0x5619bc194a00] Opening '/config/transcodes/2bf330020f1030dcff08171a924c4b3d1103.ts' for writing
[hls @ 0x5619bc194a00] Opening '/config/transcodes/2bf330020f1030dcff08171a924c4b3d1104.ts' for writing
[hls @ 0x5619bc194a00] Opening '/config/transcodes/2bf330020f1030dcff08171a924c4b3d1105.ts' for writing
[hls @ 0x5619bc194a00] Opening '/config/transcodes/2bf330020f1030dcff08171a924c4b3d1106.ts' for writing
[hls @ 0x5619bc194a00] Opening '/config/transcodes/2bf330020f1030dcff08171a924c4b3d1107.ts' for writing
frame=65138 fps=1480 q=-1.0 size=N/A time=00:45:17.10 bitrate=N/A speed=61.7x    
[hls @ 0x5619bc194a00] Opening '/config/transcodes/2bf330020f1030dcff08171a924c4b3d1108.ts' for writing
[hls @ 0x5619bc194a00] Opening '/config/transcodes/2bf330020f1030dcff08171a924c4b3d1109.ts' for writing
[hls @ 0x5619bc194a00] Opening '/config/transcodes/2bf330020f1030dcff08171a924c4b3d1110.ts' for writing
[hls @ 0x5619bc194a00] Opening '/config/transcodes/2bf330020f1030dcff08171a924c4b3d1111.ts' for writing
[hls @ 0x5619bc194a00] Opening '/config/transcodes/2bf330020f1030dcff08171a924c4b3d1112.ts' for writing
[hls @ 0x5619bc194a00] Opening '/config/transcodes/2bf330020f1030dcff08171a924c4b3d1113.ts' for writing
[hls @ 0x5619bc194a00] Opening '/config/transcodes/2bf330020f1030dcff08171a924c4b3d1114.ts' for writing
[hls @ 0x5619bc194a00] Opening '/config/transcodes/2bf330020f1030dcff08171a924c4b3d1115.ts' for writing
frame=65893 fps=1480 q=-1.0 size=N/A time=00:45:48.49 bitrate=N/A speed=61.7x    
[hls @ 0x5619bc194a00] Opening '/config/transcodes/2bf330020f1030dcff08171a924c4b3d1116.ts' for writing
[hls @ 0x5619bc194a00] Opening '/config/transcodes/2bf330020f1030dcff08171a924c4b3d1117.ts' for writing
[hls @ 0x5619bc194a00] Opening '/config/transcodes/2bf330020f1030dcff08171a924c4b3d1118.ts' for writing
[hls @ 0x5619bc194a00] Opening '/config/transcodes/2bf330020f1030dcff08171a924c4b3d1119.ts' for writing
[hls @ 0x5619bc194a00] Opening '/config/transcodes/2bf330020f1030dcff08171a924c4b3d1120.ts' for writing
[hls @ 0x5619bc194a00] Opening '/config/transcodes/2bf330020f1030dcff08171a924c4b3d1121.ts' for writing
frame=66630 fps=1480 q=-1.0 size=N/A time=00:46:19.21 bitrate=N/A speed=61.7x    
[hls @ 0x5619bc194a00] Opening '/config/transcodes/2bf330020f1030dcff08171a924c4b3d1122.ts' for writing
[hls @ 0x5619bc194a00] Opening '/config/transcodes/2bf330020f1030dcff08171a924c4b3d1123.ts' for writing
[hls @ 0x5619bc194a00] Opening '/config/transcodes/2bf330020f1030dcff08171a924c4b3d1124.ts' for writing
[hls @ 0x5619bc194a00] Opening '/config/transcodes/2bf330020f1030dcff08171a924c4b3d1125.ts' for writing
[hls @ 0x5619bc194a00] Opening '/config/transcodes/2bf330020f1030dcff08171a924c4b3d1126.ts' for writing
frame=67352 fps=1480 q=-1.0 size=N/A time=00:46:49.16 bitrate=N/A speed=61.7x    
[hls @ 0x5619bc194a00] Opening '/config/transcodes/2bf330020f1030dcff08171a924c4b3d1127.ts' for writing
[hls @ 0x5619bc194a00] Opening '/config/transcodes/2bf330020f1030dcff08171a924c4b3d1128.ts' for writing
[hls @ 0x5619bc194a00] Opening '/config/transcodes/2bf330020f1030dcff08171a924c4b3d1129.ts' for writing
[hls @ 0x5619bc194a00] Opening '/config/transcodes/2bf330020f1030dcff08171a924c4b3d1130.ts' for writing
[hls @ 0x5619bc194a00] Opening '/config/transcodes/2bf330020f1030dcff08171a924c4b3d1131.ts' for writing
frame=68134 fps=1480 q=-1.0 size=N/A time=00:47:21.90 bitrate=N/A speed=61.7x    
[hls @ 0x5619bc194a00] Opening '/config/transcodes/2bf330020f1030dcff08171a924c4b3d1132.ts' for writing
[hls @ 0x5619bc194a00] Opening '/config/transcodes/2bf330020f1030dcff08171a924c4b3d1133.ts' for writing
[hls @ 0x5619bc194a00] Opening '/config/transcodes/2bf330020f1030dcff08171a924c4b3d1134.ts' for writing
[hls @ 0x5619bc194a00] Opening '/config/transcodes/2bf330020f1030dcff08171a924c4b3d1135.ts' for writing
[hls @ 0x5619bc194a00] Opening '/config/transcodes/2bf330020f1030dcff08171a924c4b3d1136.ts' for writing
[hls @ 0x5619bc194a00] Opening '/config/transcodes/2bf330020f1030dcff08171a924c4b3d1137.ts' for writing
frame=68904 fps=1481 q=-1.0 size=N/A time=00:47:54.12 bitrate=N/A speed=61.8x    
[hls @ 0x5619bc194a00] Opening '/config/transcodes/2bf330020f1030dcff08171a924c4b3d1138.ts' for writing
[hls @ 0x5619bc194a00] Opening '/config/transcodes/2bf330020f1030dcff08171a924c4b3d1139.ts' for writing
[hls @ 0x5619bc194a00] Opening '/config/transcodes/2bf330020f1030dcff08171a924c4b3d1140.ts' for writing
[hls @ 0x5619bc194a00] Opening '/config/transcodes/2bf330020f1030dcff08171a924c4b3d1141.ts' for writing
[hls @ 0x5619bc194a00] Opening '/config/transcodes/2bf330020f1030dcff08171a924c4b3d1142.ts' for writing
[hls @ 0x5619bc194a00] Opening '/config/transcodes/2bf330020f1030dcff08171a924c4b3d1143.ts' for writing
frame=69706 fps=1482 q=-1.0 size=N/A time=00:48:27.50 bitrate=N/A speed=61.8x    
[hls @ 0x5619bc194a00] Opening '/config/transcodes/2bf330020f1030dcff08171a924c4b3d1144.ts' for writing
[hls @ 0x5619bc194a00] Opening '/config/transcodes/2bf330020f1030dcff08171a924c4b3d1145.ts' for writing
[hls @ 0x5619bc194a00] Opening '/config/transcodes/2bf330020f1030dcff08171a924c4b3d1146.ts' for writing
[hls @ 0x5619bc194a00] Opening '/config/transcodes/2bf330020f1030dcff08171a924c4b3d1147.ts' for writing
frame=70442 fps=1482 q=-1.0 size=N/A time=00:48:58.18 bitrate=N/A speed=61.8x    
[hls @ 0x5619bc194a00] Opening '/config/transcodes/2bf330020f1030dcff08171a924c4b3d1148.ts' for writing
[hls @ 0x5619bc194a00] Opening '/config/transcodes/2bf330020f1030dcff08171a924c4b3d1149.ts' for writing
[hls @ 0x5619bc194a00] Opening '/config/transcodes/2bf330020f1030dcff08171a924c4b3d1150.ts' for writing
[hls @ 0x5619bc194a00] Opening '/config/transcodes/2bf330020f1030dcff08171a924c4b3d1151.ts' for writing
[hls @ 0x5619bc194a00] Opening '/config/transcodes/2bf330020f1030dcff08171a924c4b3d1152.ts' for writing
frame=71124 fps=1481 q=-1.0 size=N/A time=00:49:26.60 bitrate=N/A speed=61.8x    
[hls @ 0x5619bc194a00] Opening '/config/transcodes/2bf330020f1030dcff08171a924c4b3d1153.ts' for writing
[hls @ 0x5619bc194a00] Opening '/config/transcodes/2bf330020f1030dcff08171a924c4b3d1154.ts' for writing
[hls @ 0x5619bc194a00] Opening '/config/transcodes/2bf330020f1030dcff08171a924c4b3d1155.ts' for writing
[hls @ 0x5619bc194a00] Opening '/config/transcodes/2bf330020f1030dcff08171a924c4b3d1156.ts' for writing
frame=71632 fps=1476 q=-1.0 size=N/A time=00:49:47.72 bitrate=N/A speed=61.6x    
[hls @ 0x5619bc194a00] Opening '/config/transcodes/2bf330020f1030dcff08171a924c4b3d1157.ts' for writing
[hls @ 0x5619bc194a00] Opening '/config/transcodes/2bf330020f1030dcff08171a924c4b3d1158.ts' for writing
frame=72022 fps=1469 q=-1.0 size=N/A time=00:50:03.95 bitrate=N/A speed=61.3x    
[hls @ 0x5619bc194a00] Opening '/config/transcodes/2bf330020f1030dcff08171a924c4b3d1159.ts' for writing
[hls @ 0x5619bc194a00] Opening '/config/transcodes/2bf330020f1030dcff08171a924c4b3d1160.ts' for writing
[hls @ 0x5619bc194a00] Opening '/config/transcodes/2bf330020f1030dcff08171a924c4b3d1161.ts' for writing
[hls @ 0x5619bc194a00] Opening '/config/transcodes/2bf330020f1030dcff08171a924c4b3d1162.ts' for writing
frame=72710 fps=1468 q=-1.0 size=N/A time=00:50:32.71 bitrate=N/A speed=61.2x    
[hls @ 0x5619bc194a00] Opening '/config/transcodes/2bf330020f1030dcff08171a924c4b3d1163.ts' for writing
[hls @ 0x5619bc194a00] Opening '/config/transcodes/2bf330020f1030dcff08171a924c4b3d1164.ts' for writing
[hls @ 0x5619bc194a00] Opening '/config/transcodes/2bf330020f1030dcff08171a924c4b3d1165.ts' for writing
[hls @ 0x5619bc194a00] Opening '/config/transcodes/2bf330020f1030dcff08171a924c4b3d1166.ts' for writing
[hls @ 0x5619bc194a00] Opening '/config/transcodes/2bf330020f1030dcff08171a924c4b3d1167.ts' for writing
[hls @ 0x5619bc194a00] Opening '/config/transcodes/2bf330020f1030dcff08171a924c4b3d1168.ts' for writing
frame=73342 fps=1466 q=-1.0 size=N/A time=00:50:59.14 bitrate=N/A speed=61.1x    
[hls @ 0x5619bc194a00] Opening '/config/transcodes/2bf330020f1030dcff08171a924c4b3d1169.ts' for writing
[hls @ 0x5619bc194a00] Opening '/config/transcodes/2bf330020f1030dcff08171a924c4b3d1170.ts' for writing
frame=73639 fps=1457 q=-1.0 size=N/A time=00:51:11.60 bitrate=N/A speed=60.8x    
[hls @ 0x5619bc194a00] Opening '/config/transcodes/2bf330020f1030dcff08171a924c4b3d1171.ts' for writing
[hls @ 0x5619bc194a00] Opening '/config/transcodes/2bf330020f1030dcff08171a924c4b3d1172.ts' for writing
[hls @ 0x5619bc194a00] Opening '/config/transcodes/2bf330020f1030dcff08171a924c4b3d1173.ts' for writing
[hls @ 0x5619bc194a00] Opening '/config/transcodes/2bf330020f1030dcff08171a924c4b3d1174.ts' for writing
[hls @ 0x5619bc194a00] Opening '/config/transcodes/2bf330020f1030dcff08171a924c4b3d1175.ts' for writing
frame=74328 fps=1457 q=-1.0 size=N/A time=00:51:40.27 bitrate=N/A speed=60.8x    
[hls @ 0x5619bc194a00] Opening '/config/transcodes/2bf330020f1030dcff08171a924c4b3d1176.ts' for writing
[hls @ 0x5619bc194a00] Opening '/config/transcodes/2bf330020f1030dcff08171a924c4b3d1177.ts' for writing
[hls @ 0x5619bc194a00] Opening '/config/transcodes/2bf330020f1030dcff08171a924c4b3d1178.ts' for writing
[hls @ 0x5619bc194a00] Opening '/config/transcodes/2bf330020f1030dcff08171a924c4b3d1179.ts' for writing
frame=75004 fps=1456 q=-1.0 size=N/A time=00:52:08.33 bitrate=N/A speed=60.7x    
[hls @ 0x5619bc194a00] Opening '/config/transcodes/2bf330020f1030dcff08171a924c4b3d1180.ts' for writing
[hls @ 0x5619bc194a00] Opening '/config/transcodes/2bf330020f1030dcff08171a924c4b3d1181.ts' for writing
[hls @ 0x5619bc194a00] Opening '/config/transcodes/2bf330020f1030dcff08171a924c4b3d1182.ts' for writing
[hls @ 0x5619bc194a00] Opening '/config/transcodes/2bf330020f1030dcff08171a924c4b3d1183.ts' for writing
[hls @ 0x5619bc194a00] Opening '/config/transcodes/2bf330020f1030dcff08171a924c4b3d1184.ts' for writing
frame=75702 fps=1455 q=-1.0 size=N/A time=00:52:37.57 bitrate=N/A speed=60.7x    
[hls @ 0x5619bc194a00] Opening '/config/transcodes/2bf330020f1030dcff08171a924c4b3d1185.ts' for writing
[hls @ 0x5619bc194a00] Opening '/config/transcodes/2bf330020f1030dcff08171a924c4b3d1186.ts' for writing
[hls @ 0x5619bc194a00] Opening '/config/transcodes/2bf330020f1030dcff08171a924c4b3d1187.ts' for writing
[hls @ 0x5619bc194a00] Opening '/config/transcodes/2bf330020f1030dcff08171a924c4b3d1188.ts' for writing
[hls @ 0x5619bc194a00] Opening '/config/transcodes/2bf330020f1030dcff08171a924c4b3d1189.ts' for writing
frame=76393 fps=1454 q=-1.0 size=N/A time=00:53:06.48 bitrate=N/A speed=60.7x    
[hls @ 0x5619bc194a00] Opening '/config/transcodes/2bf330020f1030dcff08171a924c4b3d1190.ts' for writing
[hls @ 0x5619bc194a00] Opening '/config/transcodes/2bf330020f1030dcff08171a924c4b3d1191.ts' for writing
[hls @ 0x5619bc194a00] Opening '/config/transcodes/2bf330020f1030dcff08171a924c4b3d1192.ts' for writing
[hls @ 0x5619bc194a00] Opening '/config/transcodes/2bf330020f1030dcff08171a924c4b3d1193.ts' for writing
frame=77091 fps=1454 q=-1.0 size=N/A time=00:53:35.43 bitrate=N/A speed=60.6x    
[hls @ 0x5619bc194a00] Opening '/config/transcodes/2bf330020f1030dcff08171a924c4b3d1194.ts' for writing
[hls @ 0x5619bc194a00] Opening '/config/transcodes/2bf330020f1030dcff08171a924c4b3d1195.ts' for writing
[hls @ 0x5619bc194a00] Opening '/config/transcodes/2bf330020f1030dcff08171a924c4b3d1196.ts' for writing
[hls @ 0x5619bc194a00] Opening '/config/transcodes/2bf330020f1030dcff08171a924c4b3d1197.ts' for writing
[hls @ 0x5619bc194a00] Opening '/config/transcodes/2bf330020f1030dcff08171a924c4b3d1198.ts' for writing
[hls @ 0x5619bc194a00] Opening '/config/transcodes/2bf330020f1030dcff08171a924c4b3d1199.ts' for writing
frame=77798 fps=1453 q=-1.0 size=N/A time=00:54:04.85 bitrate=N/A speed=60.6x    
[hls @ 0x5619bc194a00] Opening '/config/transcodes/2bf330020f1030dcff08171a924c4b3d1200.ts' for writing
[hls @ 0x5619bc194a00] Opening '/config/transcodes/2bf330020f1030dcff08171a924c4b3d1201.ts' for writing
[hls @ 0x5619bc194a00] Opening '/config/transcodes/2bf330020f1030dcff08171a924c4b3d1202.ts' for writing
[hls @ 0x5619bc194a00] Opening '/config/transcodes/2bf330020f1030dcff08171a924c4b3d1203.ts' for writing
[hls @ 0x5619bc194a00] Opening '/config/transcodes/2bf330020f1030dcff08171a924c4b3d1204.ts' for writing
frame=78538 fps=1453 q=-1.0 size=N/A time=00:54:35.89 bitrate=N/A speed=60.6x    
[hls @ 0x5619bc194a00] Opening '/config/transcodes/2bf330020f1030dcff08171a924c4b3d1205.ts' for writing
[hls @ 0x5619bc194a00] Opening '/config/transcodes/2bf330020f1030dcff08171a924c4b3d1206.ts' for writing
[hls @ 0x5619bc194a00] Opening '/config/transcodes/2bf330020f1030dcff08171a924c4b3d1207.ts' for writing
[hls @ 0x5619bc194a00] Opening '/config/transcodes/2bf330020f1030dcff08171a924c4b3d1208.ts' for writing
[hls @ 0x5619bc194a00] Opening '/config/transcodes/2bf330020f1030dcff08171a924c4b3d1209.ts' for writing
frame=79255 fps=1453 q=-1.0 size=N/A time=00:55:05.86 bitrate=N/A speed=60.6x    
[hls @ 0x5619bc194a00] Opening '/config/transcodes/2bf330020f1030dcff08171a924c4b3d1210.ts' for writing
[hls @ 0x5619bc194a00] Opening '/config/transcodes/2bf330020f1030dcff08171a924c4b3d1211.ts' for writing
[hls @ 0x5619bc194a00] Opening '/config/transcodes/2bf330020f1030dcff08171a924c4b3d1212.ts' for writing
[hls @ 0x5619bc194a00] Opening '/config/transcodes/2bf330020f1030dcff08171a924c4b3d1213.ts' for writing
frame=80011 fps=1454 q=-1.0 size=N/A time=00:55:37.39 bitrate=N/A speed=60.6x    
[hls @ 0x5619bc194a00] Opening '/config/transcodes/2bf330020f1030dcff08171a924c4b3d1214.ts' for writing
[hls @ 0x5619bc194a00] Opening '/config/transcodes/2bf330020f1030dcff08171a924c4b3d1215.ts' for writing
[hls @ 0x5619bc194a00] Opening '/config/transcodes/2bf330020f1030dcff08171a924c4b3d1216.ts' for writing
frame=80761 fps=1454 q=-1.0 size=N/A time=00:56:08.56 bitrate=N/A speed=60.7x    
[hls @ 0x5619bc194a00] Opening '/config/transcodes/2bf330020f1030dcff08171a924c4b3d1217.ts' for writing
[hls @ 0x5619bc194a00] Opening '/config/transcodes/2bf330020f1030dcff08171a924c4b3d1218.ts' for writing
[hls @ 0x5619bc194a00] Opening '/config/transcodes/2bf330020f1030dcff08171a924c4b3d1219.ts' for writing
frame=81571 fps=1456 q=-1.0 size=N/A time=00:56:42.37 bitrate=N/A speed=60.7x    
[hls @ 0x5619bc194a00] Opening '/config/transcodes/2bf330020f1030dcff08171a924c4b3d1220.ts' for writing
[hls @ 0x5619bc194a00] Opening '/config/transcodes/2bf330020f1030dcff08171a924c4b3d1221.ts' for writing
[hls @ 0x5619bc194a00] Opening '/config/transcodes/2bf330020f1030dcff08171a924c4b3d1222.ts' for writing
[hls @ 0x5619bc194a00] Opening '/config/transcodes/2bf330020f1030dcff08171a924c4b3d1223.ts' for writing
frame=82390 fps=1457 q=-1.0 size=N/A time=00:57:16.66 bitrate=N/A speed=60.8x    
[hls @ 0x5619bc194a00] Opening '/config/transcodes/2bf330020f1030dcff08171a924c4b3d1224.ts' for writing
[hls @ 0x5619bc194a00] Opening '/config/transcodes/2bf330020f1030dcff08171a924c4b3d1225.ts' for writing
[hls @ 0x5619bc194a00] Opening '/config/transcodes/2bf330020f1030dcff08171a924c4b3d1226.ts' for writing
frame=83206 fps=1459 q=-1.0 size=N/A time=00:57:50.47 bitrate=N/A speed=60.8x    
[hls @ 0x5619bc194a00] Opening '/config/transcodes/2bf330020f1030dcff08171a924c4b3d1227.ts' for writing
[hls @ 0x5619bc194a00] Opening '/config/transcodes/2bf330020f1030dcff08171a924c4b3d1228.ts' for writing
[hls @ 0x5619bc194a00] Opening '/config/transcodes/2bf330020f1030dcff08171a924c4b3d1229.ts' for writing
frame=84010 fps=1460 q=-1.0 size=N/A time=00:58:24.26 bitrate=N/A speed=60.9x    
[hls @ 0x5619bc194a00] Opening '/config/transcodes/2bf330020f1030dcff08171a924c4b3d1230.ts' for writing
[hls @ 0x5619bc194a00] Opening '/config/transcodes/2bf330020f1030dcff08171a924c4b3d1231.ts' for writing
[hls @ 0x5619bc194a00] Opening '/config/transcodes/2bf330020f1030dcff08171a924c4b3d1232.ts' for writing
[hls @ 0x5619bc194a00] Opening '/config/transcodes/2bf330020f1030dcff08171a924c4b3d1233.ts' for writing
frame=84803 fps=1461 q=-1.0 size=N/A time=00:58:57.26 bitrate=N/A speed=60.9x    
[hls @ 0x5619bc194a00] Opening '/config/transcodes/2bf330020f1030dcff08171a924c4b3d1234.ts' for writing
[hls @ 0x5619bc194a00] Opening '/config/transcodes/2bf330020f1030dcff08171a924c4b3d1235.ts' for writing
[hls @ 0x5619bc194a00] Opening '/config/transcodes/2bf330020f1030dcff08171a924c4b3d1236.ts' for writing
frame=85620 fps=1463 q=-1.0 size=N/A time=00:59:31.25 bitrate=N/A speed=  61x    
[hls @ 0x5619bc194a00] Opening '/config/transcodes/2bf330020f1030dcff08171a924c4b3d1237.ts' for writing
[hls @ 0x5619bc194a00] Opening '/config/transcodes/2bf330020f1030dcff08171a924c4b3d1238.ts' for writing
[hls @ 0x5619bc194a00] Opening '/config/transcodes/2bf330020f1030dcff08171a924c4b3d1239.ts' for writing
frame=86445 fps=1464 q=-1.0 size=N/A time=01:00:05.64 bitrate=N/A speed=61.1x    
[hls @ 0x5619bc194a00] Opening '/config/transcodes/2bf330020f1030dcff08171a924c4b3d1240.ts' for writing
[hls @ 0x5619bc194a00] Opening '/config/transcodes/2bf330020f1030dcff08171a924c4b3d1241.ts' for writing
[hls @ 0x5619bc194a00] Opening '/config/transcodes/2bf330020f1030dcff08171a924c4b3d1242.ts' for writing
[hls @ 0x5619bc194a00] Opening '/config/transcodes/2bf330020f1030dcff08171a924c4b3d1243.ts' for writing
frame=87258 fps=1466 q=-1.0 size=N/A time=01:00:39.49 bitrate=N/A speed=61.1x    
[hls @ 0x5619bc194a00] Opening '/config/transcodes/2bf330020f1030dcff08171a924c4b3d1244.ts' for writing
frame=87392 fps=1466 q=-1.0 Lsize=N/A time=01:00:45.13 bitrate=N/A speed=61.1x    
video:931233kB audio:170717kB subtitle:0kB other streams:0kB global headers:0kB muxing overhead: unknown